<svg data-hexboard="" viewBox="0 0 24 24" xmlns="http://www.w3.org/2000/svg">
  <g data-background="">
    <path
      d="M 11.42264973081 1 L 12.57735026919 1 13.154700538379 2 13.154700538379 2 14.309401076759 2 14.886751345948 3 14.886751345948 3 16.041451884327 3 16.618802153517 4 16.618802153517 4 17.773502691896 4 18.350852961086 5 18.350852961086 5 19.505553499465 5 20.082903768655 6 20.082903768655 6 21.237604307034 6 21.814954576224 7 21.237604307034 8 21.237604307034 8 21.814954576224 9 21.237604307034 10 21.237604307034 10 21.814954576224 11 21.237604307034 12 21.237604307034 12 21.814954576224 13 21.237604307034 14 21.237604307034 14 21.814954576224 15 21.237604307034 16 21.237604307034 16 21.814954576224 17 21.237604307034 18 20.082903768655 18 19.505553499465 19 18.350852961086 19 17.773502691896 18 18.350852961086 19 17.773502691896 20 16.618802153517 20 16.618802153517 20 16.041451884327 21 14.886751345948 21 14.886751345948 21 14.309401076759 22 13.154700538379 22 13.154700538379 22 12.57735026919 23 11.42264973081 23 10.845299461621 22 9.6905989232415 22 9.1132486540518 21 9.1132486540519 21 7.9585481156726 21 7.3811978464829 20 7.381197846483 20 6.2264973081037 20 5.6491470389141 19 5.6491470389141 19 4.4944465005348 19 3.9170962313452 18 3.9170962313453 18 2.762395692966 18 2.1850454237763 17 2.762395692966 16 2.762395692966 16 2.1850454237763 15 2.762395692966 14 2.762395692966 14 2.1850454237763 13 2.762395692966 12 2.762395692966 12 2.1850454237763 11 2.762395692966 10 2.762395692966 10 2.1850454237763 9 2.762395692966 8 2.762395692966 8 2.1850454237763 7 2.762395692966 6 3.9170962313452 6 4.4944465005348 5 5.6491470389141 5 5.6491470389141 5 6.2264973081037 4 7.381197846483 4 7.3811978464829 4 7.9585481156726 3 9.1132486540519 3 9.1132486540518 3 9.6905989232415 2 10.845299461621 2 Z"
      fill="#fff"
    ></path>
  </g>

  <g data-hexagons="">
    <path d="M 12.57735026919 11 L 13.154700538379 12 12.57735026919 13 11.42264973081 13 10.845299461621 12 11.42264973081 11 Z" fill="#fdba74"></path>
    <path d="M 3.9170962313453 6 L 4.4944465005349 7 3.9170962313453 8 2.762395692966 8 2.1850454237763 7 2.762395692966 6 Z" fill="#fed7aa"></path>
    <path d="M 5.6491470389141 7 L 6.2264973081038 8 5.6491470389141 9 4.4944465005348 9 3.9170962313452 8 4.4944465005348 7 Z" fill="#ca8a04"></path>
    <path d="M 7.381197846483 8 L 7.9585481156727 9 7.381197846483 10 6.2264973081037 10 5.6491470389141 9 6.2264973081037 8 Z" fill="#fdba74"></path>
    <path d="M 9.1132486540519 9 L 9.6905989232415 10 9.1132486540519 11 7.9585481156726 11 7.3811978464829 10 7.9585481156726 9 Z" fill="#fed7aa"></path>
    <path d="M 10.845299461621 10 L 11.42264973081 11 10.845299461621 12 9.6905989232415 12 9.1132486540518 11 9.6905989232415 10 Z" fill="#ca8a04"></path>
    <path d="M 14.309401076759 10 L 14.886751345948 11 14.309401076759 12 13.154700538379 12 12.57735026919 11 13.154700538379 10 Z" fill="#ca8a04"></path>
    <path d="M 16.041451884327 9 L 16.618802153517 10 16.041451884327 11 14.886751345948 11 14.309401076758 10 14.886751345948 9 Z" fill="#fed7aa"></path>
    <path d="M 17.773502691896 8 L 18.350852961086 9 17.773502691896 10 16.618802153517 10 16.041451884327 9 16.618802153517 8 Z" fill="#fdba74"></path>
    <path d="M 19.505553499465 7 L 20.082903768655 8 19.505553499465 9 18.350852961086 9 17.773502691896 8 18.350852961086 7 Z" fill="#ca8a04"></path>
    <path d="M 21.237604307034 6 L 21.814954576224 7 21.237604307034 8 20.082903768655 8 19.505553499465 7 20.082903768655 6 Z" fill="#fed7aa"></path>
    <path d="M 3.9170962313453 16 L 4.4944465005349 17 3.9170962313453 18 2.762395692966 18 2.1850454237763 17 2.762395692966 16 Z" fill="#ca8a04"></path>
    <path d="M 3.9170962313453 14 L 4.4944465005349 15 3.9170962313453 16 2.762395692966 16 2.1850454237763 15 2.762395692966 14 Z" fill="#fdba74"></path>
    <path d="M 3.9170962313453 12 L 4.4944465005349 13 3.9170962313453 14 2.762395692966 14 2.1850454237763 13 2.762395692966 12 Z" fill="#fed7aa"></path>
    <path d="M 3.9170962313453 10 L 4.4944465005349 11 3.9170962313453 12 2.762395692966 12 2.1850454237763 11 2.762395692966 10 Z" fill="#ca8a04"></path>
    <path d="M 3.9170962313453 8 L 4.4944465005349 9 3.9170962313453 10 2.762395692966 10 2.1850454237763 9 2.762395692966 8 Z" fill="#fdba74"></path>
    <path d="M 5.6491470389141 17 L 6.2264973081038 18 5.6491470389141 19 4.4944465005348 19 3.9170962313452 18 4.4944465005348 17 Z" fill="#fdba74"></path>
    <path d="M 5.6491470389141 15 L 6.2264973081038 16 5.6491470389141 17 4.4944465005348 17 3.9170962313452 16 4.4944465005348 15 Z" fill="#fed7aa"></path>
    <path d="M 5.6491470389141 13 L 6.2264973081038 14 5.6491470389141 15 4.4944465005348 15 3.9170962313452 14 4.4944465005348 13 Z" fill="#ca8a04"></path>
    <path d="M 5.6491470389141 11 L 6.2264973081038 12 5.6491470389141 13 4.4944465005348 13 3.9170962313452 12 4.4944465005348 11 Z" fill="#fdba74"></path>
    <path d="M 5.6491470389141 9 L 6.2264973081038 10 5.6491470389141 11 4.4944465005348 11 3.9170962313452 10 4.4944465005348 9 Z" fill="#fed7aa"></path>
    <path d="M 5.6491470389141 5 L 6.2264973081038 6 5.6491470389141 7 4.4944465005348 7 3.9170962313452 6 4.4944465005348 5 Z" fill="#fdba74"></path>
    <path d="M 7.381197846483 18 L 7.9585481156727 19 7.381197846483 20 6.2264973081037 20 5.6491470389141 19 6.2264973081037 18 Z" fill="#fed7aa"></path>
    <path d="M 7.381197846483 16 L 7.9585481156727 17 7.381197846483 18 6.2264973081037 18 5.6491470389141 17 6.2264973081037 16 Z" fill="#ca8a04"></path>
    <path d="M 7.381197846483 14 L 7.9585481156727 15 7.381197846483 16 6.2264973081037 16 5.6491470389141 15 6.2264973081037 14 Z" fill="#fdba74"></path>
    <path d="M 7.381197846483 12 L 7.9585481156727 13 7.381197846483 14 6.2264973081037 14 5.6491470389141 13 6.2264973081037 12 Z" fill="#fed7aa"></path>
    <path d="M 7.381197846483 10 L 7.9585481156727 11 7.381197846483 12 6.2264973081037 12 5.6491470389141 11 6.2264973081037 10 Z" fill="#ca8a04"></path>
    <path d="M 7.381197846483 6 L 7.9585481156727 7 7.381197846483 8 6.2264973081037 8 5.6491470389141 7 6.2264973081037 6 Z" fill="#fed7aa"></path>
    <path d="M 7.381197846483 4 L 7.9585481156727 5 7.381197846483 6 6.2264973081037 6 5.6491470389141 5 6.2264973081037 4 Z" fill="#ca8a04"></path>
    <path d="M 9.1132486540519 19 L 9.6905989232415 20 9.1132486540519 21 7.9585481156726 21 7.3811978464829 20 7.9585481156726 19 Z" fill="#ca8a04"></path>
    <path d="M 9.1132486540519 17 L 9.6905989232415 18 9.1132486540519 19 7.9585481156726 19 7.3811978464829 18 7.9585481156726 17 Z" fill="#fdba74"></path>
    <path d="M 9.1132486540519 15 L 9.6905989232415 16 9.1132486540519 17 7.9585481156726 17 7.3811978464829 16 7.9585481156726 15 Z" fill="#fed7aa"></path>
    <path d="M 9.1132486540519 13 L 9.6905989232415 14 9.1132486540519 15 7.9585481156726 15 7.3811978464829 14 7.9585481156726 13 Z" fill="#ca8a04"></path>
    <path d="M 9.1132486540519 11 L 9.6905989232415 12 9.1132486540519 13 7.9585481156726 13 7.3811978464829 12 7.9585481156726 11 Z" fill="#fdba74"></path>
    <path d="M 9.1132486540519 7 L 9.6905989232415 8 9.1132486540519 9 7.9585481156726 9 7.3811978464829 8 7.9585481156726 7 Z" fill="#ca8a04"></path>
    <path d="M 9.1132486540519 5 L 9.6905989232415 6 9.1132486540519 7 7.9585481156726 7 7.3811978464829 6 7.9585481156726 5 Z" fill="#fdba74"></path>
    <path d="M 9.1132486540519 3 L 9.6905989232415 4 9.1132486540519 5 7.9585481156726 5 7.3811978464829 4 7.9585481156726 3 Z" fill="#fed7aa"></path>
    <path d="M 10.845299461621 20 L 11.42264973081 21 10.845299461621 22 9.6905989232415 22 9.1132486540518 21 9.6905989232415 20 Z" fill="#fdba74"></path>
    <path d="M 10.845299461621 18 L 11.42264973081 19 10.845299461621 20 9.6905989232415 20 9.1132486540518 19 9.6905989232415 18 Z" fill="#fed7aa"></path>
    <path d="M 10.845299461621 16 L 11.42264973081 17 10.845299461621 18 9.6905989232415 18 9.1132486540518 17 9.6905989232415 16 Z" fill="#ca8a04"></path>
    <path d="M 10.845299461621 14 L 11.42264973081 15 10.845299461621 16 9.6905989232415 16 9.1132486540518 15 9.6905989232415 14 Z" fill="#fdba74"></path>
    <path d="M 10.845299461621 12 L 11.42264973081 13 10.845299461621 14 9.6905989232415 14 9.1132486540518 13 9.6905989232415 12 Z" fill="#fed7aa"></path>
    <path d="M 10.845299461621 8 L 11.42264973081 9 10.845299461621 10 9.6905989232415 10 9.1132486540518 9 9.6905989232415 8 Z" fill="#fdba74"></path>
    <path d="M 10.845299461621 6 L 11.42264973081 7 10.845299461621 8 9.6905989232415 8 9.1132486540518 7 9.6905989232415 6 Z" fill="#fed7aa"></path>
    <path d="M 10.845299461621 4 L 11.42264973081 5 10.845299461621 6 9.6905989232415 6 9.1132486540518 5 9.6905989232415 4 Z" fill="#ca8a04"></path>
    <path d="M 10.845299461621 2 L 11.42264973081 3 10.845299461621 4 9.6905989232415 4 9.1132486540518 3 9.6905989232415 2 Z" fill="#fdba74"></path>
    <path d="M 12.57735026919 21 L 13.154700538379 22 12.57735026919 23 11.42264973081 23 10.845299461621 22 11.42264973081 21 Z" fill="#fed7aa"></path>
    <path d="M 12.57735026919 19 L 13.154700538379 20 12.57735026919 21 11.42264973081 21 10.845299461621 20 11.42264973081 19 Z" fill="#ca8a04"></path>
    <path d="M 12.57735026919 17 L 13.154700538379 18 12.57735026919 19 11.42264973081 19 10.845299461621 18 11.42264973081 17 Z" fill="#fdba74"></path>
    <path d="M 12.57735026919 15 L 13.154700538379 16 12.57735026919 17 11.42264973081 17 10.845299461621 16 11.42264973081 15 Z" fill="#fed7aa"></path>
    <path d="M 12.57735026919 13 L 13.154700538379 14 12.57735026919 15 11.42264973081 15 10.845299461621 14 11.42264973081 13 Z" fill="#ca8a04"></path>
    <path d="M 12.57735026919 9 L 13.154700538379 10 12.57735026919 11 11.42264973081 11 10.845299461621 10 11.42264973081 9 Z" fill="#fed7aa"></path>
    <path d="M 12.57735026919 7 L 13.154700538379 8 12.57735026919 9 11.42264973081 9 10.845299461621 8 11.42264973081 7 Z" fill="#ca8a04"></path>
    <path d="M 12.57735026919 5 L 13.154700538379 6 12.57735026919 7 11.42264973081 7 10.845299461621 6 11.42264973081 5 Z" fill="#fdba74"></path>
    <path d="M 12.57735026919 3 L 13.154700538379 4 12.57735026919 5 11.42264973081 5 10.845299461621 4 11.42264973081 3 Z" fill="#fed7aa"></path>
    <path d="M 12.57735026919 1 L 13.154700538379 2 12.57735026919 3 11.42264973081 3 10.845299461621 2 11.42264973081 1 Z" fill="#ca8a04"></path>
    <path d="M 14.309401076759 20 L 14.886751345948 21 14.309401076759 22 13.154700538379 22 12.57735026919 21 13.154700538379 20 Z" fill="#fdba74"></path>
    <path d="M 14.309401076759 18 L 14.886751345948 19 14.309401076759 20 13.154700538379 20 12.57735026919 19 13.154700538379 18 Z" fill="#fed7aa"></path>
    <path d="M 14.309401076759 16 L 14.886751345948 17 14.309401076759 18 13.154700538379 18 12.57735026919 17 13.154700538379 16 Z" fill="#ca8a04"></path>
    <path d="M 14.309401076759 14 L 14.886751345948 15 14.309401076759 16 13.154700538379 16 12.57735026919 15 13.154700538379 14 Z" fill="#fdba74"></path>
    <path d="M 14.309401076759 12 L 14.886751345948 13 14.309401076759 14 13.154700538379 14 12.57735026919 13 13.154700538379 12 Z" fill="#fed7aa"></path>
    <path d="M 14.309401076759 8 L 14.886751345948 9 14.309401076759 10 13.154700538379 10 12.57735026919 9 13.154700538379 8 Z" fill="#fdba74"></path>
    <path d="M 14.309401076759 6 L 14.886751345948 7 14.309401076759 8 13.154700538379 8 12.57735026919 7 13.154700538379 6 Z" fill="#fed7aa"></path>
    <path d="M 14.309401076759 4 L 14.886751345948 5 14.309401076759 6 13.154700538379 6 12.57735026919 5 13.154700538379 4 Z" fill="#ca8a04"></path>
    <path d="M 14.309401076759 2 L 14.886751345948 3 14.309401076759 4 13.154700538379 4 12.57735026919 3 13.154700538379 2 Z" fill="#fdba74"></path>
    <path d="M 16.041451884327 19 L 16.618802153517 20 16.041451884327 21 14.886751345948 21 14.309401076758 20 14.886751345948 19 Z" fill="#ca8a04"></path>
    <path d="M 16.041451884327 17 L 16.618802153517 18 16.041451884327 19 14.886751345948 19 14.309401076758 18 14.886751345948 17 Z" fill="#fdba74"></path>
    <path d="M 16.041451884327 15 L 16.618802153517 16 16.041451884327 17 14.886751345948 17 14.309401076758 16 14.886751345948 15 Z" fill="#fed7aa"></path>
    <path d="M 16.041451884327 13 L 16.618802153517 14 16.041451884327 15 14.886751345948 15 14.309401076758 14 14.886751345948 13 Z" fill="#ca8a04"></path>
    <path d="M 16.041451884327 11 L 16.618802153517 12 16.041451884327 13 14.886751345948 13 14.309401076758 12 14.886751345948 11 Z" fill="#fdba74"></path>
    <path d="M 16.041451884327 7 L 16.618802153517 8 16.041451884327 9 14.886751345948 9 14.309401076758 8 14.886751345948 7 Z" fill="#ca8a04"></path>
    <path d="M 16.041451884327 5 L 16.618802153517 6 16.041451884327 7 14.886751345948 7 14.309401076758 6 14.886751345948 5 Z" fill="#fdba74"></path>
    <path d="M 16.041451884327 3 L 16.618802153517 4 16.041451884327 5 14.886751345948 5 14.309401076758 4 14.886751345948 3 Z" fill="#fed7aa"></path>
    <path d="M 17.773502691896 18 L 18.350852961086 19 17.773502691896 20 16.618802153517 20 16.041451884327 19 16.618802153517 18 Z" fill="#fed7aa"></path>
    <path d="M 17.773502691896 16 L 18.350852961086 17 17.773502691896 18 16.618802153517 18 16.041451884327 17 16.618802153517 16 Z" fill="#ca8a04"></path>
    <path d="M 17.773502691896 14 L 18.350852961086 15 17.773502691896 16 16.618802153517 16 16.041451884327 15 16.618802153517 14 Z" fill="#fdba74"></path>
    <path d="M 17.773502691896 12 L 18.350852961086 13 17.773502691896 14 16.618802153517 14 16.041451884327 13 16.618802153517 12 Z" fill="#fed7aa"></path>
    <path d="M 17.773502691896 10 L 18.350852961086 11 17.773502691896 12 16.618802153517 12 16.041451884327 11 16.618802153517 10 Z" fill="#ca8a04"></path>
    <path d="M 17.773502691896 6 L 18.350852961086 7 17.773502691896 8 16.618802153517 8 16.041451884327 7 16.618802153517 6 Z" fill="#fed7aa"></path>
    <path d="M 17.773502691896 4 L 18.350852961086 5 17.773502691896 6 16.618802153517 6 16.041451884327 5 16.618802153517 4 Z" fill="#ca8a04"></path>
    <path d="M 19.505553499465 17 L 20.082903768655 18 19.505553499465 19 18.350852961086 19 17.773502691896 18 18.350852961086 17 Z" fill="#fdba74"></path>
    <path d="M 19.505553499465 15 L 20.082903768655 16 19.505553499465 17 18.350852961086 17 17.773502691896 16 18.350852961086 15 Z" fill="#fed7aa"></path>
    <path d="M 19.505553499465 13 L 20.082903768655 14 19.505553499465 15 18.350852961086 15 17.773502691896 14 18.350852961086 13 Z" fill="#ca8a04"></path>
    <path d="M 19.505553499465 11 L 20.082903768655 12 19.505553499465 13 18.350852961086 13 17.773502691896 12 18.350852961086 11 Z" fill="#fdba74"></path>
    <path d="M 19.505553499465 9 L 20.082903768655 10 19.505553499465 11 18.350852961086 11 17.773502691896 10 18.350852961086 9 Z" fill="#fed7aa"></path>
    <path d="M 19.505553499465 5 L 20.082903768655 6 19.505553499465 7 18.350852961086 7 17.773502691896 6 18.350852961086 5 Z" fill="#fdba74"></path>
    <path d="M 21.237604307034 16 L 21.814954576224 17 21.237604307034 18 20.082903768655 18 19.505553499465 17 20.082903768655 16 Z" fill="#ca8a04"></path>
    <path d="M 21.237604307034 14 L 21.814954576224 15 21.237604307034 16 20.082903768655 16 19.505553499465 15 20.082903768655 14 Z" fill="#fdba74"></path>
    <path d="M 21.237604307034 12 L 21.814954576224 13 21.237604307034 14 20.082903768655 14 19.505553499465 13 20.082903768655 12 Z" fill="#fed7aa"></path>
    <path d="M 21.237604307034 10 L 21.814954576224 11 21.237604307034 12 20.082903768655 12 19.505553499465 11 20.082903768655 10 Z" fill="#ca8a04"></path>
    <path d="M 21.237604307034 8 L 21.814954576224 9 21.237604307034 10 20.082903768655 10 19.505553499465 9 20.082903768655 8 Z" fill="#fdba74"></path>
  </g>

  <g data-highlights="">
    <path d="M 14.309401076759 14 L 14.886751345948 15 14.309401076759 16 13.154700538379 16 12.57735026919 15 13.154700538379 14 Z" fill="#f43f5e"></path>
  </g>

  <g data-pieces="">
    <svg height="1.6" width="1.6" data-piece="b" viewBox="0 0 45 45" xmlns="http://www.w3.org/2000/svg" data-piece-position="f11" x="11.2" y="1.1999999999999993">
      <g fill-rule="evenodd" fill="none" stroke-linecap="round" stroke-linejoin="round" stroke-width="1" stroke="#000">
        <g fill="#000" stroke-linecap="butt">
          <path d="M9 36c3.39-.97 10.11.43 13.5-2 3.39 2.43 10.11 1.03 13.5 2 0 0 1.65.54 3 2-.68.97-1.65.99-3 .5-3.39-.97-10.11.46-13.5-1-3.39 1.46-10.11.03-13.5 1-1.354.49-2.323.47-3-.5 1.354-1.94 3-2 3-2z"></path>
          <path d="M15 32c2.5 2.5 12.5 2.5 15 0 .5-1.5 0-2 0-2 0-2.5-2.5-4-2.5-4 5.5-1.5 6-11.5-5-15.5-11 4-10.5 14-5 15.5 0 0-2.5 1.5-2.5 4 0 0-.5.5 0 2z"></path>
          <path d="M25 8a2.5 2.5 0 1 1-5 0 2.5 2.5 0 1 1 5 0z"></path>
        </g>
        <path d="M17.5 26h10M15 30h15m-7.5-14.5v5M20 18h5" stroke="#ececec" stroke-linejoin="miter"></path>
      </g>
    </svg>
    <svg height="1.6" width="1.6" data-piece="q" viewBox="0 0 45 45" xmlns="http://www.w3.org/2000/svg" data-piece-position="e10" x="9.467949192431123" y="2.1999999999999993">
      <g fill-rule="evenodd" stroke-linecap="round" stroke-linejoin="round" stroke-width="1" stroke="#000">
        <g stroke="none">
          <circle cx="6" cy="12" r="2.75"></circle>
          <circle cx="14" cy="9" r="2.75"></circle>
          <circle cx="22.5" cy="8" r="2.75"></circle>
          <circle cx="31" cy="9" r="2.75"></circle>
          <circle cx="39" cy="12" r="2.75"></circle>
        </g>
        <path d="M9 26c8.5-1.5 21-1.5 27 0l2.5-12.5L31 25l-.3-14.1-5.2 13.6-3-14.5-3 14.5-5.2-13.6L14 25 6.5 13.5 9 26z" stroke-linecap="butt"></path>
        <path d="M9 26c0 2 1.5 2 2.5 4 1 1.5 1 1 .5 3.5-1.5 1-1.5 2.5-1.5 2.5-1.5 1.5.5 2.5.5 2.5 6.5 1 16.5 1 23 0 0 0 1.5-1 0-2.5 0 0 .5-1.5-1-2.5-.5-2.5-.5-2 .5-3.5 1-2 2.5-2 2.5-4-8.5-1.5-18.5-1.5-27 0z" stroke-linecap="butt"></path>
        <path d="M11 38.5a35 35 1 0 0 23 0" fill="none" stroke-linecap="butt"></path>
        <path d="M11 29a35 35 1 0 1 23 0m-21.5 2.5h20m-21 3a35 35 1 0 0 22 0m-23 3a35 35 1 0 0 24 0" fill="none" stroke="#ececec"></path>
      </g>
    </svg>
    <svg height="1.6" width="1.6" data-piece="b" viewBox="0 0 45 45" xmlns="http://www.w3.org/2000/svg" data-piece-position="f10" x="11.2" y="3.1999999999999993">
      <g fill-rule="evenodd" fill="none" stroke-linecap="round" stroke-linejoin="round" stroke-width="1" stroke="#000">
        <g fill="#000" stroke-linecap="butt">
          <path d="M9 36c3.39-.97 10.11.43 13.5-2 3.39 2.43 10.11 1.03 13.5 2 0 0 1.65.54 3 2-.68.97-1.65.99-3 .5-3.39-.97-10.11.46-13.5-1-3.39 1.46-10.11.03-13.5 1-1.354.49-2.323.47-3-.5 1.354-1.94 3-2 3-2z"></path>
          <path d="M15 32c2.5 2.5 12.5 2.5 15 0 .5-1.5 0-2 0-2 0-2.5-2.5-4-2.5-4 5.5-1.5 6-11.5-5-15.5-11 4-10.5 14-5 15.5 0 0-2.5 1.5-2.5 4 0 0-.5.5 0 2z"></path>
          <path d="M25 8a2.5 2.5 0 1 1-5 0 2.5 2.5 0 1 1 5 0z"></path>
        </g>
        <path d="M17.5 26h10M15 30h15m-7.5-14.5v5M20 18h5" stroke="#ececec" stroke-linejoin="miter"></path>
      </g>
    </svg>
    <svg height="1.6" width="1.6" data-piece="k" viewBox="0 0 45 45" xmlns="http://www.w3.org/2000/svg" data-piece-position="g10" x="12.932050807568878" y="2.1999999999999993">
      <g fill-rule="evenodd" fill="none" stroke-linecap="round" stroke-linejoin="round" stroke-width="1" stroke="#000">
        <path d="M22.5 11.63V6" stroke-linejoin="miter"></path>
        <path d="M22.5 25s4.5-7.5 3-10.5c0 0-1-2.5-3-2.5s-3 2.5-3 2.5c-1.5 3 3 10.5 3 10.5" fill="#000" stroke-linecap="butt" stroke-linejoin="miter"></path>
        <path d="M11.5 37c5.5 3.5 15.5 3.5 21 0v-7s9-4.5 6-10.5c-4-6.5-13.5-3.5-16 4V27v-3.5c-3.5-7.5-13-10.5-16-4-3 6 5 10 5 10V37z" fill="#000"></path>
        <path d="M20 8h5" stroke-linejoin="miter"></path>
        <path d="M32 29.5s8.5-4 6.03-9.65C34.15 14 25 18 22.5 24.5l.01 2.1-.01-2.1C20 18 9.906 14 6.997 19.85c-2.497 5.65 4.853 9 4.853 9" stroke="#ececec"></path>
        <path d="M11.5 30c5.5-3 15.5-3 21 0m-21 3.5c5.5-3 15.5-3 21 0m-21 3.5c5.5-3 15.5-3 21 0" stroke="#ececec"></path>
      </g>
    </svg>
    <svg height="1.6" width="1.6" data-piece="n" viewBox="0 0 45 45" xmlns="http://www.w3.org/2000/svg" data-piece-position="d9" x="7.735898384862246" y="3.1999999999999993">
      <g fill-rule="evenodd" fill="none" stroke-linecap="round" stroke-linejoin="round" stroke-width="1" stroke="#000">
        <path d="M22 10c10.5 1 16.5 8 16 29H15c0-9 10-6.5 8-21" fill="#000"></path>
        <path d="M24 18c.38 2.91-5.55 7.37-8 9-3 2-2.82 4.34-5 4-1.042-.94 1.41-3.04 0-3-1 0 .19 1.23-1 2-1 0-4.003 1-4-4 0-2 6-12 6-12s1.89-1.9 2-3.5c-.73-.994-.5-2-.5-3 1-1 3 2.5 3 2.5h2s.78-1.992 2.5-3c1 0 1 3 1 3" fill="#000"></path>
        <path d="M9.5 25.5a.5.5 0 1 1-1 0 .5.5 0 1 1 1 0zm5.433-9.75a.5 1.5 30 1 1-.866-.5.5 1.5 30 1 1 .866.5z" fill="#ececec" stroke="#ececec"></path>
        <path d="M24.55 10.4l-.45 1.45.5.15c3.15 1 5.65 2.49 7.9 6.75S35.75 29.06 35.25 39l-.05.5h2.25l.05-.5c.5-10.06-.88-16.85-3.25-21.34-2.37-4.49-5.79-6.64-9.19-7.16l-.51-.1z" fill="#ececec" stroke="none"></path>
      </g>
    </svg>
    <svg height="1.6" width="1.6" data-piece="b" viewBox="0 0 45 45" xmlns="http://www.w3.org/2000/svg" data-piece-position="f9" x="11.2" y="5.2">
      <g fill-rule="evenodd" fill="none" stroke-linecap="round" stroke-linejoin="round" stroke-width="1" stroke="#000">
        <g fill="#000" stroke-linecap="butt">
          <path d="M9 36c3.39-.97 10.11.43 13.5-2 3.39 2.43 10.11 1.03 13.5 2 0 0 1.65.54 3 2-.68.97-1.65.99-3 .5-3.39-.97-10.11.46-13.5-1-3.39 1.46-10.11.03-13.5 1-1.354.49-2.323.47-3-.5 1.354-1.94 3-2 3-2z"></path>
          <path d="M15 32c2.5 2.5 12.5 2.5 15 0 .5-1.5 0-2 0-2 0-2.5-2.5-4-2.5-4 5.5-1.5 6-11.5-5-15.5-11 4-10.5 14-5 15.5 0 0-2.5 1.5-2.5 4 0 0-.5.5 0 2z"></path>
          <path d="M25 8a2.5 2.5 0 1 1-5 0 2.5 2.5 0 1 1 5 0z"></path>
        </g>
        <path d="M17.5 26h10M15 30h15m-7.5-14.5v5M20 18h5" stroke="#ececec" stroke-linejoin="miter"></path>
      </g>
    </svg>
    <svg height="1.6" width="1.6" data-piece="n" viewBox="0 0 45 45" xmlns="http://www.w3.org/2000/svg" data-piece-position="h9" x="14.664101615137755" y="3.1999999999999993">
      <g fill-rule="evenodd" fill="none" stroke-linecap="round" stroke-linejoin="round" stroke-width="1" stroke="#000">
        <path d="M22 10c10.5 1 16.5 8 16 29H15c0-9 10-6.5 8-21" fill="#000"></path>
        <path d="M24 18c.38 2.91-5.55 7.37-8 9-3 2-2.82 4.34-5 4-1.042-.94 1.41-3.04 0-3-1 0 .19 1.23-1 2-1 0-4.003 1-4-4 0-2 6-12 6-12s1.89-1.9 2-3.5c-.73-.994-.5-2-.5-3 1-1 3 2.5 3 2.5h2s.78-1.992 2.5-3c1 0 1 3 1 3" fill="#000"></path>
        <path d="M9.5 25.5a.5.5 0 1 1-1 0 .5.5 0 1 1 1 0zm5.433-9.75a.5 1.5 30 1 1-.866-.5.5 1.5 30 1 1 .866.5z" fill="#ececec" stroke="#ececec"></path>
        <path d="M24.55 10.4l-.45 1.45.5.15c3.15 1 5.65 2.49 7.9 6.75S35.75 29.06 35.25 39l-.05.5h2.25l.05-.5c.5-10.06-.88-16.85-3.25-21.34-2.37-4.49-5.79-6.64-9.19-7.16l-.51-.1z" fill="#ececec" stroke="none"></path>
      </g>
    </svg>
    <svg height="1.6" width="1.6" data-piece="r" viewBox="0 0 45 45" xmlns="http://www.w3.org/2000/svg" data-piece-position="c8" x="6.003847577293368" y="4.2">
      <g fill-rule="evenodd" stroke-linecap="round" stroke-linejoin="round" stroke-width="1" stroke="#000">
        <path d="M9 39h27v-3H9v3zm3.5-7l1.5-2.5h17l1.5 2.5h-20zm-.5 4v-4h21v4H12z" stroke-linecap="butt"></path>
        <path d="M14 29.5v-13h17v13H14z" stroke-linecap="butt" stroke-linejoin="miter"></path>
        <path d="M14 16.5L11 14h23l-3 2.5H14zM11 14V9h4v2h5V9h5v2h5V9h4v5H11z" stroke-linecap="butt"></path>
        <path d="M12 35.5h21m-20-4h19m-18-2h17m-17-13h17M11 14h23" fill="none" stroke="#ececec" stroke-width="1" stroke-linejoin="miter"></path>
      </g>
    </svg>
    <svg height="1.6" width="1.6" data-piece="r" viewBox="0 0 45 45" xmlns="http://www.w3.org/2000/svg" data-piece-position="i8" x="16.39615242270663" y="4.2">
      <g fill-rule="evenodd" stroke-linecap="round" stroke-linejoin="round" stroke-width="1" stroke="#000">
        <path d="M9 39h27v-3H9v3zm3.5-7l1.5-2.5h17l1.5 2.5h-20zm-.5 4v-4h21v4H12z" stroke-linecap="butt"></path>
        <path d="M14 29.5v-13h17v13H14z" stroke-linecap="butt" stroke-linejoin="miter"></path>
        <path d="M14 16.5L11 14h23l-3 2.5H14zM11 14V9h4v2h5V9h5v2h5V9h4v5H11z" stroke-linecap="butt"></path>
        <path d="M12 35.5h21m-20-4h19m-18-2h17m-17-13h17M11 14h23" fill="none" stroke="#ececec" stroke-width="1" stroke-linejoin="miter"></path>
      </g>
    </svg>
    <svg height="1.6" width="1.6" data-piece="p" viewBox="0 0 45 45" xmlns="http://www.w3.org/2000/svg" data-piece-position="b7" x="4.2717967697244905" y="5.2">
      <path
        d="M22.5 9c-2.21 0-4 1.79-4 4 0 .89.29 1.71.78 2.38C17.33 16.5 16 18.59 16 21c0 2.03.94 3.84 2.41 5.03-3 1.06-7.41 5.55-7.41 13.47h23c0-7.92-4.41-12.41-7.41-13.47 1.47-1.19 2.41-3 2.41-5.03 0-2.41-1.33-4.5-3.28-5.62.49-.67.78-1.49.78-2.38 0-2.21-1.79-4-4-4z"
        stroke-linecap="round"
        stroke-width="1"
        stroke="#000"
      ></path>
    </svg>
    <svg height="1.6" width="1.6" data-piece="p" viewBox="0 0 45 45" xmlns="http://www.w3.org/2000/svg" data-piece-position="c7" x="6.003847577293368" y="6.2">
      <path
        d="M22.5 9c-2.21 0-4 1.79-4 4 0 .89.29 1.71.78 2.38C17.33 16.5 16 18.59 16 21c0 2.03.94 3.84 2.41 5.03-3 1.06-7.41 5.55-7.41 13.47h23c0-7.92-4.41-12.41-7.41-13.47 1.47-1.19 2.41-3 2.41-5.03 0-2.41-1.33-4.5-3.28-5.62.49-.67.78-1.49.78-2.38 0-2.21-1.79-4-4-4z"
        stroke-linecap="round"
        stroke-width="1"
        stroke="#000"
      ></path>
    </svg>
    <svg height="1.6" width="1.6" data-piece="p" viewBox="0 0 45 45" xmlns="http://www.w3.org/2000/svg" data-piece-position="d7" x="7.735898384862246" y="7.2">
      <path
        d="M22.5 9c-2.21 0-4 1.79-4 4 0 .89.29 1.71.78 2.38C17.33 16.5 16 18.59 16 21c0 2.03.94 3.84 2.41 5.03-3 1.06-7.41 5.55-7.41 13.47h23c0-7.92-4.41-12.41-7.41-13.47 1.47-1.19 2.41-3 2.41-5.03 0-2.41-1.33-4.5-3.28-5.62.49-.67.78-1.49.78-2.38 0-2.21-1.79-4-4-4z"
        stroke-linecap="round"
        stroke-width="1"
        stroke="#000"
      ></path>
    </svg>
    <svg height="1.6" width="1.6" data-piece="p" viewBox="0 0 45 45" xmlns="http://www.w3.org/2000/svg" data-piece-position="e7" x="9.467949192431123" y="8.2">
      <path
        d="M22.5 9c-2.21 0-4 1.79-4 4 0 .89.29 1.71.78 2.38C17.33 16.5 16 18.59 16 21c0 2.03.94 3.84 2.41 5.03-3 1.06-7.41 5.55-7.41 13.47h23c0-7.92-4.41-12.41-7.41-13.47 1.47-1.19 2.41-3 2.41-5.03 0-2.41-1.33-4.5-3.28-5.62.49-.67.78-1.49.78-2.38 0-2.21-1.79-4-4-4z"
        stroke-linecap="round"
        stroke-width="1"
        stroke="#000"
      ></path>
    </svg>
    <svg height="1.6" width="1.6" data-piece="p" viewBox="0 0 45 45" xmlns="http://www.w3.org/2000/svg" data-piece-position="f7" x="11.2" y="9.2">
      <path
        d="M22.5 9c-2.21 0-4 1.79-4 4 0 .89.29 1.71.78 2.38C17.33 16.5 16 18.59 16 21c0 2.03.94 3.84 2.41 5.03-3 1.06-7.41 5.55-7.41 13.47h23c0-7.92-4.41-12.41-7.41-13.47 1.47-1.19 2.41-3 2.41-5.03 0-2.41-1.33-4.5-3.28-5.62.49-.67.78-1.49.78-2.38 0-2.21-1.79-4-4-4z"
        stroke-linecap="round"
        stroke-width="1"
        stroke="#000"
      ></path>
    </svg>
    <svg height="1.6" width="1.6" data-piece="p" viewBox="0 0 45 45" xmlns="http://www.w3.org/2000/svg" data-piece-position="g7" x="12.932050807568878" y="8.2">
      <path
        d="M22.5 9c-2.21 0-4 1.79-4 4 0 .89.29 1.71.78 2.38C17.33 16.5 16 18.59 16 21c0 2.03.94 3.84 2.41 5.03-3 1.06-7.41 5.55-7.41 13.47h23c0-7.92-4.41-12.41-7.41-13.47 1.47-1.19 2.41-3 2.41-5.03 0-2.41-1.33-4.5-3.28-5.62.49-.67.78-1.49.78-2.38 0-2.21-1.79-4-4-4z"
        stroke-linecap="round"
        stroke-width="1"
        stroke="#000"
      ></path>
    </svg>
    <svg height="1.6" width="1.6" data-piece="p" viewBox="0 0 45 45" xmlns="http://www.w3.org/2000/svg" data-piece-position="h7" x="14.664101615137755" y="7.2">
      <path
        d="M22.5 9c-2.21 0-4 1.79-4 4 0 .89.29 1.71.78 2.38C17.33 16.5 16 18.59 16 21c0 2.03.94 3.84 2.41 5.03-3 1.06-7.41 5.55-7.41 13.47h23c0-7.92-4.41-12.41-7.41-13.47 1.47-1.19 2.41-3 2.41-5.03 0-2.41-1.33-4.5-3.28-5.62.49-.67.78-1.49.78-2.38 0-2.21-1.79-4-4-4z"
        stroke-linecap="round"
        stroke-width="1"
        stroke="#000"
      ></path>
    </svg>
    <svg height="1.6" width="1.6" data-piece="p" viewBox="0 0 45 45" xmlns="http://www.w3.org/2000/svg" data-piece-position="i7" x="16.39615242270663" y="6.2">
      <path
        d="M22.5 9c-2.21 0-4 1.79-4 4 0 .89.29 1.71.78 2.38C17.33 16.5 16 18.59 16 21c0 2.03.94 3.84 2.41 5.03-3 1.06-7.41 5.55-7.41 13.47h23c0-7.92-4.41-12.41-7.41-13.47 1.47-1.19 2.41-3 2.41-5.03 0-2.41-1.33-4.5-3.28-5.62.49-.67.78-1.49.78-2.38 0-2.21-1.79-4-4-4z"
        stroke-linecap="round"
        stroke-width="1"
        stroke="#000"
      ></path>
    </svg>
    <svg height="1.6" width="1.6" data-piece="p" viewBox="0 0 45 45" xmlns="http://www.w3.org/2000/svg" data-piece-position="k7" x="18.12820323027551" y="5.2">
      <path
        d="M22.5 9c-2.21 0-4 1.79-4 4 0 .89.29 1.71.78 2.38C17.33 16.5 16 18.59 16 21c0 2.03.94 3.84 2.41 5.03-3 1.06-7.41 5.55-7.41 13.47h23c0-7.92-4.41-12.41-7.41-13.47 1.47-1.19 2.41-3 2.41-5.03 0-2.41-1.33-4.5-3.28-5.62.49-.67.78-1.49.78-2.38 0-2.21-1.79-4-4-4z"
        stroke-linecap="round"
        stroke-width="1"
        stroke="#000"
      ></path>
    </svg>
    <svg height="1.6" width="1.6" data-piece="P" viewBox="0 0 45 45" xmlns="http://www.w3.org/2000/svg" data-piece-position="f5" x="11.2" y="13.2">
      <path
        d="M22.5 9c-2.21 0-4 1.79-4 4 0 .89.29 1.71.78 2.38C17.33 16.5 16 18.59 16 21c0 2.03.94 3.84 2.41 5.03-3 1.06-7.41 5.55-7.41 13.47h23c0-7.92-4.41-12.41-7.41-13.47 1.47-1.19 2.41-3 2.41-5.03 0-2.41-1.33-4.5-3.28-5.62.49-.67.78-1.49.78-2.38 0-2.21-1.79-4-4-4z"
        fill="#fff"
        stroke-linecap="round"
        stroke-width="1"
        stroke="#000"
      ></path>
    </svg>
    <svg height="1.6" width="1.6" data-piece="P" viewBox="0 0 45 45" xmlns="http://www.w3.org/2000/svg" data-piece-position="e4" x="9.467949192431123" y="14.2">
      <path
        d="M22.5 9c-2.21 0-4 1.79-4 4 0 .89.29 1.71.78 2.38C17.33 16.5 16 18.59 16 21c0 2.03.94 3.84 2.41 5.03-3 1.06-7.41 5.55-7.41 13.47h23c0-7.92-4.41-12.41-7.41-13.47 1.47-1.19 2.41-3 2.41-5.03 0-2.41-1.33-4.5-3.28-5.62.49-.67.78-1.49.78-2.38 0-2.21-1.79-4-4-4z"
        fill="#fff"
        stroke-linecap="round"
        stroke-width="1"
        stroke="#000"
      ></path>
    </svg>
    <svg height="1.6" width="1.6" data-piece="P" viewBox="0 0 45 45" xmlns="http://www.w3.org/2000/svg" data-piece-position="g4" x="12.932050807568878" y="14.2">
      <path
        d="M22.5 9c-2.21 0-4 1.79-4 4 0 .89.29 1.71.78 2.38C17.33 16.5 16 18.59 16 21c0 2.03.94 3.84 2.41 5.03-3 1.06-7.41 5.55-7.41 13.47h23c0-7.92-4.41-12.41-7.41-13.47 1.47-1.19 2.41-3 2.41-5.03 0-2.41-1.33-4.5-3.28-5.62.49-.67.78-1.49.78-2.38 0-2.21-1.79-4-4-4z"
        fill="#fff"
        stroke-linecap="round"
        stroke-width="1"
        stroke="#000"
      ></path>
    </svg>
    <svg height="1.6" width="1.6" data-piece="P" viewBox="0 0 45 45" xmlns="http://www.w3.org/2000/svg" data-piece-position="d3" x="7.735898384862246" y="15.2">
      <path
        d="M22.5 9c-2.21 0-4 1.79-4 4 0 .89.29 1.71.78 2.38C17.33 16.5 16 18.59 16 21c0 2.03.94 3.84 2.41 5.03-3 1.06-7.41 5.55-7.41 13.47h23c0-7.92-4.41-12.41-7.41-13.47 1.47-1.19 2.41-3 2.41-5.03 0-2.41-1.33-4.5-3.28-5.62.49-.67.78-1.49.78-2.38 0-2.21-1.79-4-4-4z"
        fill="#fff"
        stroke-linecap="round"
        stroke-width="1"
        stroke="#000"
      ></path>
    </svg>
    <svg height="1.6" width="1.6" data-piece="B" viewBox="0 0 45 45" xmlns="http://www.w3.org/2000/svg" data-piece-position="f3" x="11.2" y="17.2">
      <g fill-rule="evenodd" fill="none" stroke-linecap="round" stroke-linejoin="round" stroke-width="1" stroke="#000">
        <g fill="#fff" stroke-linecap="butt">
          <path d="M9 36c3.39-.97 10.11.43 13.5-2 3.39 2.43 10.11 1.03 13.5 2 0 0 1.65.54 3 2-.68.97-1.65.99-3 .5-3.39-.97-10.11.46-13.5-1-3.39 1.46-10.11.03-13.5 1-1.354.49-2.323.47-3-.5 1.354-1.94 3-2 3-2z"></path>
          <path d="M15 32c2.5 2.5 12.5 2.5 15 0 .5-1.5 0-2 0-2 0-2.5-2.5-4-2.5-4 5.5-1.5 6-11.5-5-15.5-11 4-10.5 14-5 15.5 0 0-2.5 1.5-2.5 4 0 0-.5.5 0 2z"></path>
          <path d="M25 8a2.5 2.5 0 1 1-5 0 2.5 2.5 0 1 1 5 0z"></path>
        </g>
        <path d="M17.5 26h10M15 30h15m-7.5-14.5v5M20 18h5" stroke-linejoin="miter"></path>
      </g>
    </svg>
    <svg height="1.6" width="1.6" data-piece="P" viewBox="0 0 45 45" xmlns="http://www.w3.org/2000/svg" data-piece-position="h3" x="14.664101615137755" y="15.2">
      <path
        d="M22.5 9c-2.21 0-4 1.79-4 4 0 .89.29 1.71.78 2.38C17.33 16.5 16 18.59 16 21c0 2.03.94 3.84 2.41 5.03-3 1.06-7.41 5.55-7.41 13.47h23c0-7.92-4.41-12.41-7.41-13.47 1.47-1.19 2.41-3 2.41-5.03 0-2.41-1.33-4.5-3.28-5.62.49-.67.78-1.49.78-2.38 0-2.21-1.79-4-4-4z"
        fill="#fff"
        stroke-linecap="round"
        stroke-width="1"
        stroke="#000"
      ></path>
    </svg>
    <svg height="1.6" width="1.6" data-piece="P" viewBox="0 0 45 45" xmlns="http://www.w3.org/2000/svg" data-piece-position="c2" x="6.003847577293368" y="16.2">
      <path
        d="M22.5 9c-2.21 0-4 1.79-4 4 0 .89.29 1.71.78 2.38C17.33 16.5 16 18.59 16 21c0 2.03.94 3.84 2.41 5.03-3 1.06-7.41 5.55-7.41 13.47h23c0-7.92-4.41-12.41-7.41-13.47 1.47-1.19 2.41-3 2.41-5.03 0-2.41-1.33-4.5-3.28-5.62.49-.67.78-1.49.78-2.38 0-2.21-1.79-4-4-4z"
        fill="#fff"
        stroke-linecap="round"
        stroke-width="1"
        stroke="#000"
      ></path>
    </svg>
    <svg height="1.6" width="1.6" data-piece="B" viewBox="0 0 45 45" xmlns="http://www.w3.org/2000/svg" data-piece-position="f2" x="11.2" y="19.2">
      <g fill-rule="evenodd" fill="none" stroke-linecap="round" stroke-linejoin="round" stroke-width="1" stroke="#000">
        <g fill="#fff" stroke-linecap="butt">
          <path d="M9 36c3.39-.97 10.11.43 13.5-2 3.39 2.43 10.11 1.03 13.5 2 0 0 1.65.54 3 2-.68.97-1.65.99-3 .5-3.39-.97-10.11.46-13.5-1-3.39 1.46-10.11.03-13.5 1-1.354.49-2.323.47-3-.5 1.354-1.94 3-2 3-2z"></path>
          <path d="M15 32c2.5 2.5 12.5 2.5 15 0 .5-1.5 0-2 0-2 0-2.5-2.5-4-2.5-4 5.5-1.5 6-11.5-5-15.5-11 4-10.5 14-5 15.5 0 0-2.5 1.5-2.5 4 0 0-.5.5 0 2z"></path>
          <path d="M25 8a2.5 2.5 0 1 1-5 0 2.5 2.5 0 1 1 5 0z"></path>
        </g>
        <path d="M17.5 26h10M15 30h15m-7.5-14.5v5M20 18h5" stroke-linejoin="miter"></path>
      </g>
    </svg>
    <svg height="1.6" width="1.6" data-piece="P" viewBox="0 0 45 45" xmlns="http://www.w3.org/2000/svg" data-piece-position="i2" x="16.39615242270663" y="16.2">
      <path
        d="M22.5 9c-2.21 0-4 1.79-4 4 0 .89.29 1.71.78 2.38C17.33 16.5 16 18.59 16 21c0 2.03.94 3.84 2.41 5.03-3 1.06-7.41 5.55-7.41 13.47h23c0-7.92-4.41-12.41-7.41-13.47 1.47-1.19 2.41-3 2.41-5.03 0-2.41-1.33-4.5-3.28-5.62.49-.67.78-1.49.78-2.38 0-2.21-1.79-4-4-4z"
        fill="#fff"
        stroke-linecap="round"
        stroke-width="1"
        stroke="#000"
      ></path>
    </svg>
    <svg height="1.6" width="1.6" data-piece="P" viewBox="0 0 45 45" xmlns="http://www.w3.org/2000/svg" data-piece-position="b1" x="4.2717967697244905" y="17.2">
      <path
        d="M22.5 9c-2.21 0-4 1.79-4 4 0 .89.29 1.71.78 2.38C17.33 16.5 16 18.59 16 21c0 2.03.94 3.84 2.41 5.03-3 1.06-7.41 5.55-7.41 13.47h23c0-7.92-4.41-12.41-7.41-13.47 1.47-1.19 2.41-3 2.41-5.03 0-2.41-1.33-4.5-3.28-5.62.49-.67.78-1.49.78-2.38 0-2.21-1.79-4-4-4z"
        fill="#fff"
        stroke-linecap="round"
        stroke-width="1"
        stroke="#000"
      ></path>
    </svg>
    <svg height="1.6" width="1.6" data-piece="R" viewBox="0 0 45 45" xmlns="http://www.w3.org/2000/svg" data-piece-position="c1" x="6.003847577293368" y="18.2">
      <g fill-rule="evenodd" fill="#fff" stroke-linecap="round" stroke-linejoin="round" stroke-width="1" stroke="#000">
        <path d="M9 39h27v-3H9v3zm3-3v-4h21v4H12zm-1-22V9h4v2h5V9h5v2h5V9h4v5" stroke-linecap="butt"></path>
        <path d="M34 14l-3 3H14l-3-3"></path>
        <path d="M31 17v12.5H14V17" stroke-linecap="butt" stroke-linejoin="miter"></path>
        <path d="M31 29.5l1.5 2.5h-20l1.5-2.5"></path>
        <path d="M11 14h23" fill="none" stroke-linejoin="miter"></path>
      </g>
    </svg>
    <svg height="1.6" width="1.6" data-piece="N" viewBox="0 0 45 45" xmlns="http://www.w3.org/2000/svg" data-piece-position="d1" x="7.735898384862246" y="19.2">
      <g fill-rule="evenodd" fill="none" stroke-linecap="round" stroke-linejoin="round" stroke-width="1" stroke="#000">
        <path d="M22 10c10.5 1 16.5 8 16 29H15c0-9 10-6.5 8-21" fill="#fff"></path>
        <path d="M24 18c.38 2.91-5.55 7.37-8 9-3 2-2.82 4.34-5 4-1.042-.94 1.41-3.04 0-3-1 0 .19 1.23-1 2-1 0-4.003 1-4-4 0-2 6-12 6-12s1.89-1.9 2-3.5c-.73-.994-.5-2-.5-3 1-1 3 2.5 3 2.5h2s.78-1.992 2.5-3c1 0 1 3 1 3" fill="#fff"></path>
        <path d="M9.5 25.5a.5.5 0 1 1-1 0 .5.5 0 1 1 1 0zm5.433-9.75a.5 1.5 30 1 1-.866-.5.5 1.5 30 1 1 .866.5z" fill="#000"></path>
      </g>
    </svg>
    <svg height="1.6" width="1.6" data-piece="Q" viewBox="0 0 45 45" xmlns="http://www.w3.org/2000/svg" data-piece-position="e1" x="9.467949192431123" y="20.2">
      <g fill-rule="evenodd" fill="#fff" stroke-linecap="round" stroke-linejoin="round" stroke-width="1" stroke="#000">
        <path d="M8 12a2 2 0 1 1-4 0 2 2 0 1 1 4 0zm16.5-4.5a2 2 0 1 1-4 0 2 2 0 1 1 4 0zM41 12a2 2 0 1 1-4 0 2 2 0 1 1 4 0zM16 8.5a2 2 0 1 1-4 0 2 2 0 1 1 4 0zM33 9a2 2 0 1 1-4 0 2 2 0 1 1 4 0z"></path>
        <path d="M9 26c8.5-1.5 21-1.5 27 0l2-12-7 11V11l-5.5 13.5-3-15-3 15-5.5-14V25L7 14l2 12z" stroke-linecap="butt"></path>
        <path d="M9 26c0 2 1.5 2 2.5 4 1 1.5 1 1 .5 3.5-1.5 1-1.5 2.5-1.5 2.5-1.5 1.5.5 2.5.5 2.5 6.5 1 16.5 1 23 0 0 0 1.5-1 0-2.5 0 0 .5-1.5-1-2.5-.5-2.5-.5-2 .5-3.5 1-2 2.5-2 2.5-4-8.5-1.5-18.5-1.5-27 0z" stroke-linecap="butt"></path>
        <path d="M11.5 30c3.5-1 18.5-1 22 0M12 33.5c6-1 15-1 21 0" fill="none"></path>
      </g>
    </svg>
    <svg height="1.6" width="1.6" data-piece="B" viewBox="0 0 45 45" xmlns="http://www.w3.org/2000/svg" data-piece-position="f1" x="11.2" y="21.2">
      <g fill-rule="evenodd" fill="none" stroke-linecap="round" stroke-linejoin="round" stroke-width="1" stroke="#000">
        <g fill="#fff" stroke-linecap="butt">
          <path d="M9 36c3.39-.97 10.11.43 13.5-2 3.39 2.43 10.11 1.03 13.5 2 0 0 1.65.54 3 2-.68.97-1.65.99-3 .5-3.39-.97-10.11.46-13.5-1-3.39 1.46-10.11.03-13.5 1-1.354.49-2.323.47-3-.5 1.354-1.94 3-2 3-2z"></path>
          <path d="M15 32c2.5 2.5 12.5 2.5 15 0 .5-1.5 0-2 0-2 0-2.5-2.5-4-2.5-4 5.5-1.5 6-11.5-5-15.5-11 4-10.5 14-5 15.5 0 0-2.5 1.5-2.5 4 0 0-.5.5 0 2z"></path>
          <path d="M25 8a2.5 2.5 0 1 1-5 0 2.5 2.5 0 1 1 5 0z"></path>
        </g>
        <path d="M17.5 26h10M15 30h15m-7.5-14.5v5M20 18h5" stroke-linejoin="miter"></path>
      </g>
    </svg>
    <svg height="1.6" width="1.6" data-piece="K" viewBox="0 0 45 45" xmlns="http://www.w3.org/2000/svg" data-piece-position="g1" x="12.932050807568878" y="20.2">
      <g fill-rule="evenodd" fill="none" stroke-linecap="round" stroke-linejoin="round" stroke-width="1" stroke="#000">
        <path d="M22.5 11.63V6M20 8h5" stroke-linejoin="miter"></path>
        <path d="M22.5 25s4.5-7.5 3-10.5c0 0-1-2.5-3-2.5s-3 2.5-3 2.5c-1.5 3 3 10.5 3 10.5" fill="#fff" stroke-linecap="butt" stroke-linejoin="miter"></path>
        <path d="M11.5 37c5.5 3.5 15.5 3.5 21 0v-7s9-4.5 6-10.5c-4-6.5-13.5-3.5-16 4V27v-3.5c-3.5-7.5-13-10.5-16-4-3 6 5 10 5 10V37z" fill="#fff"></path>
        <path d="M11.5 30c5.5-3 15.5-3 21 0m-21 3.5c5.5-3 15.5-3 21 0m-21 3.5c5.5-3 15.5-3 21 0"></path>
      </g>
    </svg>
    <svg height="1.6" width="1.6" data-piece="N" viewBox="0 0 45 45" xmlns="http://www.w3.org/2000/svg" data-piece-position="h1" x="14.664101615137755" y="19.2">
      <g fill-rule="evenodd" fill="none" stroke-linecap="round" stroke-linejoin="round" stroke-width="1" stroke="#000">
        <path d="M22 10c10.5 1 16.5 8 16 29H15c0-9 10-6.5 8-21" fill="#fff"></path>
        <path d="M24 18c.38 2.91-5.55 7.37-8 9-3 2-2.82 4.34-5 4-1.042-.94 1.41-3.04 0-3-1 0 .19 1.23-1 2-1 0-4.003 1-4-4 0-2 6-12 6-12s1.89-1.9 2-3.5c-.73-.994-.5-2-.5-3 1-1 3 2.5 3 2.5h2s.78-1.992 2.5-3c1 0 1 3 1 3" fill="#fff"></path>
        <path d="M9.5 25.5a.5.5 0 1 1-1 0 .5.5 0 1 1 1 0zm5.433-9.75a.5 1.5 30 1 1-.866-.5.5 1.5 30 1 1 .866.5z" fill="#000"></path>
      </g>
    </svg>
    <svg height="1.6" width="1.6" data-piece="R" viewBox="0 0 45 45" xmlns="http://www.w3.org/2000/svg" data-piece-position="i1" x="16.39615242270663" y="18.2">
      <g fill-rule="evenodd" fill="#fff" stroke-linecap="round" stroke-linejoin="round" stroke-width="1" stroke="#000">
        <path d="M9 39h27v-3H9v3zm3-3v-4h21v4H12zm-1-22V9h4v2h5V9h5v2h5V9h4v5" stroke-linecap="butt"></path>
        <path d="M34 14l-3 3H14l-3-3"></path>
        <path d="M31 17v12.5H14V17" stroke-linecap="butt" stroke-linejoin="miter"></path>
        <path d="M31 29.5l1.5 2.5h-20l1.5-2.5"></path>
        <path d="M11 14h23" fill="none" stroke-linejoin="miter"></path>
      </g>
    </svg>
    <svg height="1.6" width="1.6" data-piece="P" viewBox="0 0 45 45" xmlns="http://www.w3.org/2000/svg" data-piece-position="k1" x="18.12820323027551" y="17.2">
      <path
        d="M22.5 9c-2.21 0-4 1.79-4 4 0 .89.29 1.71.78 2.38C17.33 16.5 16 18.59 16 21c0 2.03.94 3.84 2.41 5.03-3 1.06-7.41 5.55-7.41 13.47h23c0-7.92-4.41-12.41-7.41-13.47 1.47-1.19 2.41-3 2.41-5.03 0-2.41-1.33-4.5-3.28-5.62.49-.67.78-1.49.78-2.38 0-2.21-1.79-4-4-4z"
        fill="#fff"
        stroke-linecap="round"
        stroke-width="1"
        stroke="#000"
      ></path>
    </svg>
  </g>

  <g data-targets="">
    <circle cx="13.732050807568877" cy="13" fill="#f43f5e" r="0.3"></circle>
    <circle cx="13.732050807568877" cy="11" fill="#f43f5e" r="0.3"></circle>
  </g>
</svg>
