
<svg
	xmlns="http://www.w3.org/2000/svg" viewBox="0 0 24 24" style="cursor: default;">
	<path d="M 11.422649730810374 1 L 12.577350269189626 1 13.154700538379252 2 13.15470053837925 2 14.309401076758503 2 14.886751345948129 3 14.886751345948127 3 16.04145188432738 3 16.618802153517006 4 16.618802153517006 4 17.773502691896258 4 18.350852961085884 5 18.350852961085884 5 19.505553499465137 5 20.08290376865476 6 20.08290376865476 6.000000000000001 21.23760430703401 6.000000000000001 21.81495457622364 7.000000000000001 21.23760430703401 8 21.23760430703401 8 21.81495457622364 9 21.23760430703401 10 21.23760430703401 10 21.81495457622364 11 21.23760430703401 12 21.23760430703401 12 21.81495457622364 13 21.23760430703401 14 21.23760430703401 14 21.81495457622364 15 21.23760430703401 16 21.23760430703401 16 21.81495457622364 17 21.23760430703401 18 20.08290376865476 18 19.505553499465137 19 18.350852961085884 19 17.773502691896258 18 18.350852961085884 19 17.773502691896258 20 16.618802153517006 20 16.618802153517006 20 16.04145188432738 21 14.886751345948129 21 14.886751345948129 21 14.309401076758503 22 13.154700538379252 22 13.154700538379252 22 12.577350269189626 23 11.422649730810374 23 10.845299461620748 22 9.690598923241497 22 9.113248654051871 21 9.113248654051871 21 7.958548115672619 21 7.381197846482993 20 7.381197846482994 20 6.226497308103743 20 5.6491470389141165 19 5.6491470389141165 19 4.494446500534865 19 3.917096231345239 18 3.917096231345239 18 2.7623956929659865 18 2.1850454237763604 17 2.7623956929659865 16 2.7623956929659865 16 2.1850454237763604 15 2.7623956929659865 14 2.7623956929659865 14 2.1850454237763604 13.000000000000002 2.7623956929659865 12.000000000000002 2.7623956929659865 12.000000000000002 2.1850454237763604 11.000000000000002 2.7623956929659865 10.000000000000002 2.7623956929659865 10.000000000000002 2.1850454237763604 9 2.7623956929659865 8 2.7623956929659865 8 2.1850454237763604 7.000000000000001 2.7623956929659865 6.000000000000001 3.917096231345239 6 4.494446500534864 5 5.6491470389141165 5 5.6491470389141165 5 6.226497308103742 4 7.381197846482994 4 7.381197846482993 4 7.9585481156726186 3 9.113248654051871 3 9.113248654051871 3 9.690598923241495 2 10.845299461620748 2  Z" fill="#fdba74"></path>
	<path d="M 12.577350269189626 1 L 13.154700538379252 2 12.577350269189626 3 11.422649730810374 3 10.845299461620748 2 11.422649730810374 1  Z" fill="#ca8a04"></path>
	<path d="M 10.845299461620748 2 L 11.422649730810374 3 10.845299461620748 4 9.690598923241497 4 9.113248654051871 3 9.690598923241495 2  Z" fill="#fdba74"></path>
	<path d="M 12.577350269189626 3 L 13.154700538379252 4 12.577350269189626 5 11.422649730810374 5 10.845299461620748 4 11.422649730810374 3  Z" fill="#fed7aa"></path>
	<path d="M 14.309401076758503 2 L 14.886751345948129 3 14.309401076758503 4 13.154700538379252 4 12.577350269189626 3 13.15470053837925 2  Z" fill="#fdba74"></path>
	<path d="M 9.113248654051871 3 L 9.690598923241497 4 9.113248654051871 5 7.958548115672619 5 7.381197846482993 4 7.9585481156726186 3  Z" fill="#fed7aa"></path>
	<path d="M 10.845299461620748 4 L 11.422649730810374 5 10.845299461620748 6 9.690598923241497 6 9.113248654051871 5 9.690598923241495 4  Z" fill="#ca8a04"></path>
	<path d="M 12.577350269189626 5 L 13.154700538379252 6 12.577350269189626 7 11.422649730810374 7 10.845299461620748 6 11.422649730810374 5  Z" fill="#fdba74"></path>
	<path d="M 14.309401076758503 4 L 14.886751345948129 5 14.309401076758503 6 13.154700538379252 6 12.577350269189626 5 13.15470053837925 4  Z" fill="#ca8a04"></path>
	<path d="M 16.04145188432738 3 L 16.618802153517006 4 16.04145188432738 5 14.886751345948129 5 14.309401076758503 4 14.886751345948127 3  Z" fill="#fed7aa"></path>
	<path d="M 7.381197846482994 4 L 7.958548115672619 5 7.381197846482994 6 6.226497308103743 6 5.6491470389141165 5 6.226497308103742 4  Z" fill="#ca8a04"></path>
	<path d="M 9.113248654051871 5 L 9.690598923241497 6 9.113248654051871 7 7.958548115672619 7 7.381197846482993 6 7.9585481156726186 5  Z" fill="#fdba74"></path>
	<path d="M 10.845299461620748 6 L 11.422649730810374 7 10.845299461620748 8 9.690598923241497 8 9.113248654051871 7 9.690598923241495 6  Z" fill="#fed7aa"></path>
	<path d="M 12.577350269189626 7 L 13.154700538379252 8 12.577350269189626 9 11.422649730810374 9 10.845299461620748 8 11.422649730810374 7  Z" fill="#ca8a04"></path>
	<path d="M 14.309401076758503 6 L 14.886751345948129 7 14.309401076758503 8 13.154700538379252 8 12.577350269189626 7 13.15470053837925 6  Z" fill="#fed7aa"></path>
	<path d="M 16.04145188432738 5 L 16.618802153517006 6 16.04145188432738 7 14.886751345948129 7 14.309401076758503 6 14.886751345948127 5  Z" fill="#fdba74"></path>
	<path d="M 17.773502691896258 4 L 18.350852961085884 5 17.773502691896258 6 16.618802153517006 6 16.04145188432738 5 16.618802153517006 4  Z" fill="#ca8a04"></path>
	<path d="M 5.6491470389141165 5 L 6.226497308103742 6 5.6491470389141165 7 4.494446500534865 7 3.917096231345239 6 4.494446500534864 5  Z" fill="#fdba74"></path>
	<path d="M 7.381197846482994 6 L 7.958548115672619 7 7.381197846482994 8 6.226497308103743 8 5.6491470389141165 7 6.226497308103742 6  Z" fill="#fed7aa"></path>
	<path d="M 9.113248654051871 7 L 9.690598923241497 8 9.113248654051871 9 7.958548115672619 9 7.381197846482993 8 7.9585481156726186 7  Z" fill="#ca8a04"></path>
	<path d="M 10.845299461620748 8 L 11.422649730810374 9 10.845299461620748 10 9.690598923241497 10 9.113248654051871 9 9.690598923241495 8  Z" fill="#fdba74"></path>
	<path d="M 12.577350269189626 9 L 13.154700538379252 10 12.577350269189626 11 11.422649730810374 11 10.845299461620748 10 11.422649730810374 9  Z" fill="#fed7aa"></path>
	<path d="M 14.309401076758503 8 L 14.886751345948129 9 14.309401076758503 10 13.154700538379252 10 12.577350269189626 9 13.15470053837925 8  Z" fill="#fdba74"></path>
	<path d="M 16.04145188432738 7 L 16.618802153517006 8 16.04145188432738 9 14.886751345948129 9 14.309401076758503 8 14.886751345948127 7  Z" fill="#ca8a04"></path>
	<path d="M 17.773502691896258 6 L 18.350852961085884 7 17.773502691896258 8 16.618802153517006 8 16.04145188432738 7 16.618802153517006 6  Z" fill="#fed7aa"></path>
	<path d="M 19.505553499465137 5 L 20.08290376865476 6 19.505553499465137 7 18.350852961085884 7 17.773502691896258 6 18.350852961085884 5  Z" fill="#fdba74"></path>
	<path d="M 3.917096231345239 6.000000000000001 L 4.494446500534864 7.000000000000001 3.917096231345239 8 2.7623956929659865 8 2.1850454237763604 7.000000000000001 2.7623956929659865 6.000000000000001  Z" fill="#fed7aa"></path>
	<path d="M 5.6491470389141165 7 L 6.226497308103742 8 5.6491470389141165 9 4.494446500534865 9 3.917096231345239 8 4.494446500534864 7.000000000000001  Z" fill="#ca8a04"></path>
	<path d="M 7.381197846482994 8 L 7.958548115672619 9 7.381197846482994 10 6.226497308103743 10 5.6491470389141165 9 6.226497308103742 8  Z" fill="#fdba74"></path>
	<path d="M 9.113248654051871 9 L 9.690598923241497 10 9.113248654051871 11 7.958548115672619 11 7.381197846482993 10 7.9585481156726186 9  Z" fill="#fed7aa"></path>
	<path d="M 10.845299461620748 10 L 11.422649730810374 11 10.845299461620748 12 9.690598923241497 12 9.113248654051871 11 9.690598923241495 10  Z" fill="#ca8a04"></path>
	<path d="M 12.577350269189626 11 L 13.154700538379252 12 12.577350269189626 13 11.422649730810374 13 10.845299461620748 12 11.422649730810374 11  Z" fill="#fdba74"></path>
	<path d="M 14.309401076758503 10 L 14.886751345948129 11 14.309401076758503 12 13.154700538379252 12 12.577350269189626 11 13.15470053837925 10  Z" fill="#ca8a04"></path>
	<path d="M 16.04145188432738 9 L 16.618802153517006 10 16.04145188432738 11 14.886751345948129 11 14.309401076758503 10 14.886751345948127 9  Z" fill="#fed7aa"></path>
	<path d="M 17.773502691896258 8 L 18.350852961085884 9 17.773502691896258 10 16.618802153517006 10 16.04145188432738 9 16.618802153517006 8  Z" fill="#fdba74"></path>
	<path d="M 19.505553499465137 7 L 20.08290376865476 8 19.505553499465137 9 18.350852961085884 9 17.773502691896258 8 18.350852961085884 7.000000000000001  Z" fill="#ca8a04"></path>
	<path d="M 21.23760430703401 6.000000000000001 L 21.81495457622364 7.000000000000001 21.23760430703401 8 20.08290376865476 8 19.505553499465137 7.000000000000001 20.08290376865476 6.000000000000001  Z" fill="#fed7aa"></path>
	<path d="M 3.917096231345239 8 L 4.494446500534864 9 3.917096231345239 10 2.7623956929659865 10.000000000000002 2.1850454237763604 9 2.7623956929659865 8  Z" fill="#fdba74"></path>
	<path d="M 5.6491470389141165 9 L 6.226497308103742 10 5.6491470389141165 11 4.494446500534865 11 3.917096231345239 10 4.494446500534864 9  Z" fill="#fed7aa"></path>
	<path d="M 7.381197846482994 10 L 7.958548115672619 11 7.381197846482994 12 6.226497308103743 12 5.6491470389141165 11 6.226497308103742 10  Z" fill="#ca8a04"></path>
	<path d="M 9.113248654051871 11 L 9.690598923241497 12 9.113248654051871 13 7.958548115672619 13 7.381197846482993 12 7.9585481156726186 11  Z" fill="#fdba74"></path>
	<path d="M 10.845299461620748 12 L 11.422649730810374 13 10.845299461620748 14 9.690598923241497 14 9.113248654051871 13 9.690598923241495 12  Z" fill="#fed7aa"></path>
	<path d="M 12.577350269189626 13 L 13.154700538379252 14 12.577350269189626 15 11.422649730810374 15 10.845299461620748 14 11.422649730810374 13  Z" fill="#ca8a04"></path>
	<path d="M 14.309401076758503 12 L 14.886751345948129 13 14.309401076758503 14 13.154700538379252 14 12.577350269189626 13 13.15470053837925 12  Z" fill="#fed7aa"></path>
	<path d="M 16.04145188432738 11 L 16.618802153517006 12 16.04145188432738 13 14.886751345948129 13 14.309401076758503 12 14.886751345948127 11  Z" fill="#fdba74"></path>
	<path d="M 17.773502691896258 10 L 18.350852961085884 11 17.773502691896258 12 16.618802153517006 12 16.04145188432738 11 16.618802153517006 10  Z" fill="#ca8a04"></path>
	<path d="M 19.505553499465137 9 L 20.08290376865476 10 19.505553499465137 11 18.350852961085884 11 17.773502691896258 10 18.350852961085884 9  Z" fill="#fed7aa"></path>
	<path d="M 21.23760430703401 8 L 21.81495457622364 9 21.23760430703401 10 20.08290376865476 10.000000000000002 19.505553499465137 9 20.08290376865476 8  Z" fill="#fdba74"></path>
	<path d="M 3.917096231345239 10 L 4.494446500534864 11 3.917096231345239 12 2.7623956929659865 12.000000000000002 2.1850454237763604 11.000000000000002 2.7623956929659865 10.000000000000002  Z" fill="#ca8a04"></path>
	<path d="M 5.6491470389141165 11 L 6.226497308103742 12 5.6491470389141165 13 4.494446500534865 13 3.917096231345239 12 4.494446500534864 11  Z" fill="#fdba74"></path>
	<path d="M 7.381197846482994 12 L 7.958548115672619 13 7.381197846482994 14 6.226497308103743 14 5.6491470389141165 13 6.226497308103742 12  Z" fill="#fed7aa"></path>
	<path d="M 9.113248654051871 13 L 9.690598923241497 14 9.113248654051871 15 7.958548115672619 15 7.381197846482993 14 7.9585481156726186 13  Z" fill="#ca8a04"></path>
	<path d="M 10.845299461620748 14 L 11.422649730810374 15 10.845299461620748 16 9.690598923241497 16 9.113248654051871 15 9.690598923241495 14  Z" fill="#fdba74"></path>
	<path d="M 12.577350269189626 15 L 13.154700538379252 16 12.577350269189626 17 11.422649730810374 17 10.845299461620748 16 11.422649730810374 15  Z" fill="#fed7aa"></path>
	<path d="M 14.309401076758503 14 L 14.886751345948129 15 14.309401076758503 16 13.154700538379252 16 12.577350269189626 15 13.15470053837925 14  Z" fill="#ef4444"></path>
	<path d="M 16.04145188432738 13 L 16.618802153517006 14 16.04145188432738 15 14.886751345948129 15 14.309401076758503 14 14.886751345948127 13  Z" fill="#ca8a04"></path>
	<path d="M 17.773502691896258 12 L 18.350852961085884 13 17.773502691896258 14 16.618802153517006 14 16.04145188432738 13 16.618802153517006 12  Z" fill="#fed7aa"></path>
	<path d="M 19.505553499465137 11 L 20.08290376865476 12 19.505553499465137 13 18.350852961085884 13 17.773502691896258 12 18.350852961085884 11  Z" fill="#fdba74"></path>
	<path d="M 21.23760430703401 10 L 21.81495457622364 11 21.23760430703401 12 20.08290376865476 12.000000000000002 19.505553499465137 11.000000000000002 20.08290376865476 10.000000000000002  Z" fill="#ca8a04"></path>
	<path d="M 3.917096231345239 12 L 4.494446500534864 13 3.917096231345239 14 2.7623956929659865 14 2.1850454237763604 13.000000000000002 2.7623956929659865 12.000000000000002  Z" fill="#fed7aa"></path>
	<path d="M 5.6491470389141165 13 L 6.226497308103742 14 5.6491470389141165 15 4.494446500534865 15 3.917096231345239 14 4.494446500534864 13  Z" fill="#ca8a04"></path>
	<path d="M 7.381197846482994 14 L 7.958548115672619 15 7.381197846482994 16 6.226497308103743 16 5.6491470389141165 15 6.226497308103742 14  Z" fill="#fdba74"></path>
	<path d="M 9.113248654051871 15 L 9.690598923241497 16 9.113248654051871 17 7.958548115672619 17 7.381197846482993 16 7.9585481156726186 15  Z" fill="#fed7aa"></path>
	<path d="M 10.845299461620748 16 L 11.422649730810374 17 10.845299461620748 18 9.690598923241497 18 9.113248654051871 17 9.690598923241495 16  Z" fill="#ca8a04"></path>
	<path d="M 12.577350269189626 17 L 13.154700538379252 18 12.577350269189626 19 11.422649730810374 19 10.845299461620748 18 11.422649730810374 17  Z" fill="#fdba74"></path>
	<path d="M 14.309401076758503 16 L 14.886751345948129 17 14.309401076758503 18 13.154700538379252 18 12.577350269189626 17 13.15470053837925 16  Z" fill="#ca8a04"></path>
	<path d="M 16.04145188432738 15 L 16.618802153517006 16 16.04145188432738 17 14.886751345948129 17 14.309401076758503 16 14.886751345948127 15  Z" fill="#fed7aa"></path>
	<path d="M 17.773502691896258 14 L 18.350852961085884 15 17.773502691896258 16 16.618802153517006 16 16.04145188432738 15 16.618802153517006 14  Z" fill="#fdba74"></path>
	<path d="M 19.505553499465137 13 L 20.08290376865476 14 19.505553499465137 15 18.350852961085884 15 17.773502691896258 14 18.350852961085884 13  Z" fill="#ca8a04"></path>
	<path d="M 21.23760430703401 12 L 21.81495457622364 13 21.23760430703401 14 20.08290376865476 14 19.505553499465137 13.000000000000002 20.08290376865476 12.000000000000002  Z" fill="#fed7aa"></path>
	<path d="M 3.917096231345239 14 L 4.494446500534864 15 3.917096231345239 16 2.7623956929659865 16 2.1850454237763604 15 2.7623956929659865 14  Z" fill="#fdba74"></path>
	<path d="M 5.6491470389141165 15 L 6.226497308103742 16 5.6491470389141165 17 4.494446500534865 17 3.917096231345239 16 4.494446500534864 15  Z" fill="#fed7aa"></path>
	<path d="M 7.381197846482994 16 L 7.958548115672619 17 7.381197846482994 18 6.226497308103743 18 5.6491470389141165 17 6.226497308103742 16  Z" fill="#ca8a04"></path>
	<path d="M 9.113248654051871 17 L 9.690598923241497 18 9.113248654051871 19 7.958548115672619 19 7.381197846482993 18 7.9585481156726186 17  Z" fill="#fdba74"></path>
	<path d="M 10.845299461620748 18 L 11.422649730810374 19 10.845299461620748 20 9.690598923241497 20 9.113248654051871 19 9.690598923241495 18  Z" fill="#fed7aa"></path>
	<path d="M 12.577350269189626 19 L 13.154700538379252 20 12.577350269189626 21 11.422649730810374 21 10.845299461620748 20 11.422649730810374 19  Z" fill="#ca8a04"></path>
	<path d="M 14.309401076758503 18 L 14.886751345948129 19 14.309401076758503 20 13.154700538379252 20 12.577350269189626 19 13.15470053837925 18  Z" fill="#fed7aa"></path>
	<path d="M 16.04145188432738 17 L 16.618802153517006 18 16.04145188432738 19 14.886751345948129 19 14.309401076758503 18 14.886751345948127 17  Z" fill="#fdba74"></path>
	<path d="M 17.773502691896258 16 L 18.350852961085884 17 17.773502691896258 18 16.618802153517006 18 16.04145188432738 17 16.618802153517006 16  Z" fill="#ca8a04"></path>
	<path d="M 19.505553499465137 15 L 20.08290376865476 16 19.505553499465137 17 18.350852961085884 17 17.773502691896258 16 18.350852961085884 15  Z" fill="#fed7aa"></path>
	<path d="M 21.23760430703401 14 L 21.81495457622364 15 21.23760430703401 16 20.08290376865476 16 19.505553499465137 15 20.08290376865476 14  Z" fill="#fdba74"></path>
	<path d="M 3.917096231345239 16 L 4.494446500534864 17 3.917096231345239 18 2.7623956929659865 18 2.1850454237763604 17 2.7623956929659865 16  Z" fill="#ca8a04"></path>
	<path d="M 5.6491470389141165 17 L 6.226497308103742 18 5.6491470389141165 19 4.494446500534865 19 3.917096231345239 18 4.494446500534864 17  Z" fill="#fdba74"></path>
	<path d="M 7.381197846482994 18 L 7.958548115672619 19 7.381197846482994 20 6.226497308103743 20 5.6491470389141165 19 6.226497308103742 18  Z" fill="#fed7aa"></path>
	<path d="M 9.113248654051871 19 L 9.690598923241497 20 9.113248654051871 21 7.958548115672619 21 7.381197846482993 20 7.9585481156726186 19  Z" fill="#ca8a04"></path>
	<path d="M 10.845299461620748 20 L 11.422649730810374 21 10.845299461620748 22 9.690598923241497 22 9.113248654051871 21 9.690598923241495 20  Z" fill="#fdba74"></path>
	<path d="M 12.577350269189626 21 L 13.154700538379252 22 12.577350269189626 23 11.422649730810374 23 10.845299461620748 22 11.422649730810374 21  Z" fill="#fed7aa"></path>
	<path d="M 14.309401076758503 20 L 14.886751345948129 21 14.309401076758503 22 13.154700538379252 22 12.577350269189626 21 13.15470053837925 20  Z" fill="#fdba74"></path>
	<path d="M 16.04145188432738 19 L 16.618802153517006 20 16.04145188432738 21 14.886751345948129 21 14.309401076758503 20 14.886751345948127 19  Z" fill="#ca8a04"></path>
	<path d="M 17.773502691896258 18 L 18.350852961085884 19 17.773502691896258 20 16.618802153517006 20 16.04145188432738 19 16.618802153517006 18  Z" fill="#fed7aa"></path>
	<path d="M 19.505553499465137 17 L 20.08290376865476 18 19.505553499465137 19 18.350852961085884 19 17.773502691896258 18 18.350852961085884 17  Z" fill="#fdba74"></path>
	<path d="M 21.23760430703401 16 L 21.81495457622364 17 21.23760430703401 18 20.08290376865476 18 19.505553499465137 17 20.08290376865476 16  Z" fill="#ca8a04"></path>
	<svg class="text-gray-700/70 dark:text-gray-400/70 pointer-events-none"
		xmlns="http://www.w3.org/2000/svg" height="1.7" width="1.7" x="11.15" y="1.1500000000000004" viewBox="0 0 50 50" hexboard="false">
		<defs>
			<linearGradient gradientTransform="matrix(1.019 0 0 1.0751 -3392.3 527.45)" gradientUnits="userSpaceOnUse" x1="3341.2" x2="3366.2" href="#gioco-a-bb" id="gioco-b-bb" y1="-469.28" y2="-469.28"></linearGradient>
			<linearGradient id="gioco-a-bb">
				<stop offset="0" stop-color="#796c60"></stop>
				<stop offset="1" stop-color="#4b403b"></stop>
			</linearGradient>
			<linearGradient gradientTransform="matrix(1.1509 0 0 1.1499 214.24 -138.92)" gradientUnits="userSpaceOnUse" x1="-177.63" x2="-151.24" href="#gioco-a-bb" id="gioco-c-bb" y1="156.68" y2="156.68"></linearGradient>
		</defs>
		<path d="M26.87 8.223c-5.797-2.298-6.952 2.527-4.668 5.86-9.898 10.6-11.253 16.425-6.195 24.204h17.99c6.084-6.912 2.558-14.515-4.823-22.3-2.883 4.119-3.274 7.35-3.946 11.131l-3.62-.071c-.66-6.006 7.622-15.14 5.261-18.823z" fill="url(#gioco-b-bb)" stroke="#1e1e1e" stroke-linejoin="round" stroke-width="1.6"></path>
		<path d="M24.933 7.654c-.625.02-.207.197-.771.567 0 .003.01.006.01.008 3.582-.311-2.369 11.772-3.394 18.894.536-3.014 1.325-5.68 3.082-8.725 2.003-4.351 4.237-8.681 3.008-10.169-.411-.38-1.144-.601-1.934-.575zm4.24 8.338c-.6.856-.517.67-.972 1.462 6.004 6.049 8.728 13.787 3.097 20.838h2.696c6.085-6.912 2.56-14.515-4.822-22.3z" opacity=".15"></path>
		<path d="M13.24 38.286c-1.437 0-2.627 1.216-2.627 2.685v.545l.013 2.684h28.749l.012-2.684v-.545c0-1.468-1.19-2.685-2.627-2.685H25z" fill="url(#gioco-c-bb)" stroke="#1e1e1e" stroke-linecap="round" stroke-linejoin="round" stroke-width="1.6"></path>
		<path d="M14.895 34.327c-.716-1.396-3.266-6.812 4.513-15.739-2.1 4.86-5.958 8.69-4.513 15.739z" fill="#fff" opacity=".25"></path>
	</svg>
	<svg class="text-gray-700/70 dark:text-gray-400/70 pointer-events-none"
		xmlns="http://www.w3.org/2000/svg" height="1.7" width="1.7" x="9.417949192431124" y="2.1500000000000004" viewBox="0 0 50 50" hexboard="false">
		<defs>
			<linearGradient gradientTransform="translate(209.27 -109.27) scale(.31419)" gradientUnits="userSpaceOnUse" x1="-647.27" x2="-525.69" href="#gioco-a-bq" id="gioco-b-bq" y1="418.44" y2="418.44"></linearGradient>
			<linearGradient id="gioco-a-bq">
				<stop offset="0" stop-color="#796c60"></stop>
				<stop offset="1" stop-color="#4b403b"></stop>
			</linearGradient>
			<linearGradient gradientTransform="matrix(1.1509 0 0 1.1499 214.23 -138.92)" gradientUnits="userSpaceOnUse" x1="-177.63" x2="-151.24" href="#gioco-a-bq" id="gioco-c-bq" y1="156.68" y2="156.68"></linearGradient>
		</defs>
		<path d="M25 6.122c-2.635 0-4.771 2.098-4.771 4.685.002 1.855 1.118 3.534 2.846 4.283-.369 2.286-1.51 7.558-4.68 8.009-2.355.334-3.855-1.287-4.88-3.144a4.19 4.19 0 0 0 1.767-3.4c0-2.327-1.921-4.214-4.291-4.214S6.699 14.228 6.7 16.555c0 2.142 1.64 3.943 3.809 4.183l4.973 17.54h19.036l4.973-17.54c2.169-.24 3.807-2.041 3.809-4.183 0-2.327-1.922-4.214-4.292-4.214s-4.29 1.887-4.29 4.214a4.19 4.19 0 0 0 1.766 3.4c-1.025 1.857-2.525 3.478-4.88 3.144-3.17-.45-4.31-5.723-4.68-8.01 1.729-.748 2.845-2.427 2.847-4.282 0-2.587-2.136-4.685-4.77-4.685z" fill="url(#gioco-b-bq)" stroke="#1e1e1e" stroke-linejoin="round" stroke-width="1.6"></path>
		<path d="M39.002 12.342a4.348 4.348 0 0 0-1.567.296c4.741 1.678 3.877 6.805.591 7.316L30.414 38.28h4.2l4.87-17.541c2.17-.241 3.808-2.042 3.81-4.184 0-2.327-1.922-4.214-4.292-4.213z" opacity=".15"></path>
		<path d="M13.227 38.286c-1.437 0-2.627 1.216-2.627 2.685v.545l.013 2.684H39.36l.013-2.684v-.545c0-1.468-1.19-2.685-2.627-2.685h-11.76z" fill="url(#gioco-c-bq)" stroke="#1e1e1e" stroke-linecap="round" stroke-linejoin="round" stroke-width="1.6"></path>
		<g fill="#fff">
			<path d="M9.515 13.489c-.794 1.17-1.726 2.667-1.554 4.779 0 0-1.604-3.01 1.554-4.779zM23.659 7.23c-.853.874-2.37 2.934-2.133 5.374-.207-.084-1.73-3.893 2.133-5.374zM12.062 23.328l5.244 14.111-1.17.023z" opacity=".25"></path>
		</g>
	</svg>
	<svg class="text-gray-700/70 dark:text-gray-400/70 pointer-events-none"
		xmlns="http://www.w3.org/2000/svg" height="1.7" width="1.7" x="11.15" y="3.1500000000000004" viewBox="0 0 50 50" hexboard="false">
		<defs>
			<linearGradient gradientTransform="matrix(1.019 0 0 1.0751 -3392.3 527.45)" gradientUnits="userSpaceOnUse" x1="3341.2" x2="3366.2" href="#gioco-a-bb" id="gioco-b-bb" y1="-469.28" y2="-469.28"></linearGradient>
			<linearGradient id="gioco-a-bb">
				<stop offset="0" stop-color="#796c60"></stop>
				<stop offset="1" stop-color="#4b403b"></stop>
			</linearGradient>
			<linearGradient gradientTransform="matrix(1.1509 0 0 1.1499 214.24 -138.92)" gradientUnits="userSpaceOnUse" x1="-177.63" x2="-151.24" href="#gioco-a-bb" id="gioco-c-bb" y1="156.68" y2="156.68"></linearGradient>
		</defs>
		<path d="M26.87 8.223c-5.797-2.298-6.952 2.527-4.668 5.86-9.898 10.6-11.253 16.425-6.195 24.204h17.99c6.084-6.912 2.558-14.515-4.823-22.3-2.883 4.119-3.274 7.35-3.946 11.131l-3.62-.071c-.66-6.006 7.622-15.14 5.261-18.823z" fill="url(#gioco-b-bb)" stroke="#1e1e1e" stroke-linejoin="round" stroke-width="1.6"></path>
		<path d="M24.933 7.654c-.625.02-.207.197-.771.567 0 .003.01.006.01.008 3.582-.311-2.369 11.772-3.394 18.894.536-3.014 1.325-5.68 3.082-8.725 2.003-4.351 4.237-8.681 3.008-10.169-.411-.38-1.144-.601-1.934-.575zm4.24 8.338c-.6.856-.517.67-.972 1.462 6.004 6.049 8.728 13.787 3.097 20.838h2.696c6.085-6.912 2.56-14.515-4.822-22.3z" opacity=".15"></path>
		<path d="M13.24 38.286c-1.437 0-2.627 1.216-2.627 2.685v.545l.013 2.684h28.749l.012-2.684v-.545c0-1.468-1.19-2.685-2.627-2.685H25z" fill="url(#gioco-c-bb)" stroke="#1e1e1e" stroke-linecap="round" stroke-linejoin="round" stroke-width="1.6"></path>
		<path d="M14.895 34.327c-.716-1.396-3.266-6.812 4.513-15.739-2.1 4.86-5.958 8.69-4.513 15.739z" fill="#fff" opacity=".25"></path>
	</svg>
	<svg class="text-gray-700/70 dark:text-gray-400/70 pointer-events-none"
		xmlns="http://www.w3.org/2000/svg" height="1.7" width="1.7" x="12.882050807568877" y="2.1500000000000004" viewBox="0 0 50 50" hexboard="false">
		<defs>
			<linearGradient gradientTransform="matrix(.26458 0 0 .25357 227.43 -666.55)" gradientUnits="userSpaceOnUse" x1="-825.75" x2="-704.44" href="#gioco-a-bk" id="gioco-b-bk" y1="2712.8" y2="2712.8"></linearGradient>
			<linearGradient id="gioco-a-bk">
				<stop offset="0" stop-color="#796c60"></stop>
				<stop offset="1" stop-color="#4b403b"></stop>
			</linearGradient>
			<linearGradient gradientTransform="translate(225.05 -690.53)" gradientUnits="userSpaceOnUse" x1="-215.24" x2="-184.86" href="#gioco-a-bk" id="gioco-c-bk" y1="731.78" y2="731.78"></linearGradient>
		</defs>
		<path d="M25.006 3.868c-1.803.1-3.228 1.234-3.228 2.618 0 .565.244 1.644.693 2.097h-5.766v5.106h6.306l-2.61 2.833 2.673 2.167c-5.584.362-12.02 1.643-13.154 3.997-1.268 2.638 6.215 15.6 6.215 15.6h17.73s7.484-12.963 6.215-15.6c-1.133-2.357-7.594-3.64-13.179-3.999l2.71-2.165-2.61-2.833h6.306V8.583H27.54c.449-.453.693-1.531.693-2.097 0-1.384-1.425-2.518-3.228-2.618z" fill="url(#gioco-b-bk)" stroke="#1e1e1e" stroke-linejoin="round" stroke-width="1.6" style="paint-order: fill markers;"></path>
		<path d="m31.289 38.283 2.573-.005s7.482-12.428 6.214-15.065c-4.136-3.824-13.18-4.525-13.18-4.525 11.05 2.822 12.618 5.028 4.393 19.595z" opacity=".15"></path>
		<path d="M13.242 38.286c-1.437 0-2.627 1.216-2.627 2.685v.545l.013 2.684h28.749l.012-2.684v-.545c0-1.468-1.19-2.685-2.627-2.685h-11.76z" fill="url(#gioco-c-bk)" stroke="#1e1e1e" stroke-linecap="round" stroke-linejoin="round" stroke-width="1.6"></path>
		<g fill="#fff">
			<path d="M13.283 31.138s-3.074-6.555-2.666-8.092c.408-1.536 5.987-2.736 5.987-2.736-6.486 2.71-4.786 4.558-3.321 10.828zM17.521 12.884v-3.52l1.532-.011c-.891.007-1.532 2.147-1.532 3.531zM24.798 4.67s-2.614.92-1.53 3.522c-.178-.007-2.142-2.72 1.53-3.522z" opacity=".25"></path>
		</g>
	</svg>
	<svg class="text-gray-700/70 dark:text-gray-400/70 pointer-events-none"
		xmlns="http://www.w3.org/2000/svg" height="1.7" width="1.7" x="7.685898384862245" y="3.1500000000000004" viewBox="0 0 50 50" hexboard="false">
		<defs>
			<linearGradient gradientTransform="matrix(1.0621 0 0 1.0589 -3487.5 459.63)" gradientUnits="userSpaceOnUse" x1="3295.1" x2="3321.5" href="#gioco-a-bn" id="gioco-b-bn" y1="-411.88" y2="-411.88"></linearGradient>
			<linearGradient id="gioco-a-bn">
				<stop offset="0" stop-color="#796c60"></stop>
				<stop offset="1" stop-color="#4b403b"></stop>
			</linearGradient>
			<linearGradient gradientTransform="matrix(1.1509 0 0 1.1499 214.24 -138.92)" gradientUnits="userSpaceOnUse" x1="-177.63" x2="-151.24" href="#gioco-a-bn" id="gioco-c-bn" y1="156.68" y2="156.68"></linearGradient>
		</defs>
		<path class="st28" d="m25.987 23.546-11.592 1.097-1.454-5.216 14.468-6.815 1.763-3.9 10.2 11.892-4.116 17.678H14.74c.245-11.292 9.64-8.1 11.247-14.736z" fill="url(#gioco-b-bn)" stroke="#1e1e1e" stroke-linejoin="round" stroke-width="1.6"></path>
		<path d="m29.173 8.72-.879 1.945.426-.943c2.692 3.722 5.608 7.279 8.45 10.888l-5.285 17.671h3.372l4.117-17.671z" opacity=".15"></path>
		<path d="M13.24 38.286c-1.437 0-2.627 1.216-2.627 2.685v.545l.013 2.684h28.748l.013-2.684v-.545c0-1.468-1.19-2.685-2.627-2.685H25z" fill="url(#gioco-c-bn)" stroke="#1e1e1e" stroke-linecap="round" stroke-linejoin="round" stroke-width="1.6"></path>
		<path d="M15.62 37.633c.159-4.472 2.145-6.971 8.667-9.837-.987 1.107-6.405 2.237-8.667 9.837zM14.418 21.67l-.523-1.803L28.03 13.21l1.217-2.764-.671 3.558-14.35 5.921z" fill="#fff" opacity=".25"></path>
	</svg>
	<svg class="text-gray-700/70 dark:text-gray-400/70 pointer-events-none"
		xmlns="http://www.w3.org/2000/svg" height="1.7" width="1.7" x="11.15" y="5.15" viewBox="0 0 50 50" hexboard="false">
		<defs>
			<linearGradient gradientTransform="matrix(1.019 0 0 1.0751 -3392.3 527.45)" gradientUnits="userSpaceOnUse" x1="3341.2" x2="3366.2" href="#gioco-a-bb" id="gioco-b-bb" y1="-469.28" y2="-469.28"></linearGradient>
			<linearGradient id="gioco-a-bb">
				<stop offset="0" stop-color="#796c60"></stop>
				<stop offset="1" stop-color="#4b403b"></stop>
			</linearGradient>
			<linearGradient gradientTransform="matrix(1.1509 0 0 1.1499 214.24 -138.92)" gradientUnits="userSpaceOnUse" x1="-177.63" x2="-151.24" href="#gioco-a-bb" id="gioco-c-bb" y1="156.68" y2="156.68"></linearGradient>
		</defs>
		<path d="M26.87 8.223c-5.797-2.298-6.952 2.527-4.668 5.86-9.898 10.6-11.253 16.425-6.195 24.204h17.99c6.084-6.912 2.558-14.515-4.823-22.3-2.883 4.119-3.274 7.35-3.946 11.131l-3.62-.071c-.66-6.006 7.622-15.14 5.261-18.823z" fill="url(#gioco-b-bb)" stroke="#1e1e1e" stroke-linejoin="round" stroke-width="1.6"></path>
		<path d="M24.933 7.654c-.625.02-.207.197-.771.567 0 .003.01.006.01.008 3.582-.311-2.369 11.772-3.394 18.894.536-3.014 1.325-5.68 3.082-8.725 2.003-4.351 4.237-8.681 3.008-10.169-.411-.38-1.144-.601-1.934-.575zm4.24 8.338c-.6.856-.517.67-.972 1.462 6.004 6.049 8.728 13.787 3.097 20.838h2.696c6.085-6.912 2.56-14.515-4.822-22.3z" opacity=".15"></path>
		<path d="M13.24 38.286c-1.437 0-2.627 1.216-2.627 2.685v.545l.013 2.684h28.749l.012-2.684v-.545c0-1.468-1.19-2.685-2.627-2.685H25z" fill="url(#gioco-c-bb)" stroke="#1e1e1e" stroke-linecap="round" stroke-linejoin="round" stroke-width="1.6"></path>
		<path d="M14.895 34.327c-.716-1.396-3.266-6.812 4.513-15.739-2.1 4.86-5.958 8.69-4.513 15.739z" fill="#fff" opacity=".25"></path>
	</svg>
	<svg class="text-gray-700/70 dark:text-gray-400/70 pointer-events-none"
		xmlns="http://www.w3.org/2000/svg" height="1.7" width="1.7" x="14.614101615137756" y="3.1500000000000004" viewBox="0 0 50 50" hexboard="false">
		<defs>
			<linearGradient gradientTransform="matrix(1.0621 0 0 1.0589 -3487.5 459.63)" gradientUnits="userSpaceOnUse" x1="3295.1" x2="3321.5" href="#gioco-a-bn" id="gioco-b-bn" y1="-411.88" y2="-411.88"></linearGradient>
			<linearGradient id="gioco-a-bn">
				<stop offset="0" stop-color="#796c60"></stop>
				<stop offset="1" stop-color="#4b403b"></stop>
			</linearGradient>
			<linearGradient gradientTransform="matrix(1.1509 0 0 1.1499 214.24 -138.92)" gradientUnits="userSpaceOnUse" x1="-177.63" x2="-151.24" href="#gioco-a-bn" id="gioco-c-bn" y1="156.68" y2="156.68"></linearGradient>
		</defs>
		<path class="st28" d="m25.987 23.546-11.592 1.097-1.454-5.216 14.468-6.815 1.763-3.9 10.2 11.892-4.116 17.678H14.74c.245-11.292 9.64-8.1 11.247-14.736z" fill="url(#gioco-b-bn)" stroke="#1e1e1e" stroke-linejoin="round" stroke-width="1.6"></path>
		<path d="m29.173 8.72-.879 1.945.426-.943c2.692 3.722 5.608 7.279 8.45 10.888l-5.285 17.671h3.372l4.117-17.671z" opacity=".15"></path>
		<path d="M13.24 38.286c-1.437 0-2.627 1.216-2.627 2.685v.545l.013 2.684h28.748l.013-2.684v-.545c0-1.468-1.19-2.685-2.627-2.685H25z" fill="url(#gioco-c-bn)" stroke="#1e1e1e" stroke-linecap="round" stroke-linejoin="round" stroke-width="1.6"></path>
		<path d="M15.62 37.633c.159-4.472 2.145-6.971 8.667-9.837-.987 1.107-6.405 2.237-8.667 9.837zM14.418 21.67l-.523-1.803L28.03 13.21l1.217-2.764-.671 3.558-14.35 5.921z" fill="#fff" opacity=".25"></path>
	</svg>
	<svg class="text-gray-700/70 dark:text-gray-400/70 pointer-events-none"
		xmlns="http://www.w3.org/2000/svg" height="1.7" width="1.7" x="5.953847577293368" y="4.15" viewBox="0 0 50 50" hexboard="false">
		<defs>
			<linearGradient gradientTransform="matrix(.23554 0 0 .25454 -3002.1 473.49)" gradientUnits="userSpaceOnUse" x1="12797" x2="12909" href="#gioco-a-br" id="gioco-b-br" y1="-1764.6" y2="-1764.6"></linearGradient>
			<linearGradient id="gioco-a-br">
				<stop offset="0" stop-color="#796c60"></stop>
				<stop offset="1" stop-color="#4b403b"></stop>
			</linearGradient>
			<linearGradient gradientTransform="translate(40.423 -.922)" gradientUnits="userSpaceOnUse" x1="-30.611" x2="-.235" href="#gioco-a-br" id="gioco-c-br" y1="42.165" y2="42.165"></linearGradient>
		</defs>
		<path d="M12.855 10.383v7.663c0 3.268 6.53 3.774 6.53 3.774-.352 9.864-5.036 16.486-5.036 16.486l21.428-.039s-4.651-6.62-5-16.446c0 0 6.896-.507 6.896-3.774v-7.663h-4.72s.459 2.25-.47 3.26c-1.035 1.126-2.418 1.126-3.454 0-.928-1.01-.47-3.26-.47-3.26h-6.59s.459 2.25-.47 3.26c-1.122 1.22-2.699 1.22-3.82 0-.929-1.01-.47-3.26-.47-3.26z" fill="url(#gioco-b-br)" stroke="#1e1e1e" stroke-linejoin="round" stroke-width="1.6"></path>
		<path d="m37.543 10.462.014 7.585c.263 3.48-24.58 2.135-24.523 1.03 2.098 2.532 4.445 2.613 6.352 2.744 7.292.498 9.8 8.89 13.306 16.446h2.97s-4.65-6.62-5-16.446c2.547-.395 2.954-.812 4.037-1.058h.018l-.002-.004c1.023-.236 2.81-1.376 2.842-2.713v-7.663z" opacity=".15"></path>
		<path d="M13.239 38.286c-1.437 0-2.627 1.216-2.627 2.685v.544l.013 2.685h28.75l.012-2.685v-.544c0-1.469-1.19-2.685-2.627-2.685H25z" fill="url(#gioco-c-br)" stroke="#1e1e1e" stroke-linecap="round" stroke-linejoin="round" stroke-width="1.6"></path>
		<g fill="#fff">
			<path d="M13.656 11.168v5.54c.48-1.867.299-4.088 1.554-5.54zM22.877 11.163c.055.896-.154 1.748-.269 2.616.48-1.866 1.823-2.616 1.823-2.616zM16.947 35.312c.875-1.143 3.603-10.333 3.233-13.244.7.39.658 10.057-3.233 13.244zM33.863 11.209c.005.598-.055 1.226-.187 2.02.48-1.867 1.295-2.04 1.295-2.04z" opacity=".25"></path>
		</g>
	</svg>
	<svg class="text-gray-700/70 dark:text-gray-400/70 pointer-events-none"
		xmlns="http://www.w3.org/2000/svg" height="1.7" width="1.7" x="16.34615242270663" y="4.15" viewBox="0 0 50 50" hexboard="false">
		<defs>
			<linearGradient gradientTransform="matrix(.23554 0 0 .25454 -3002.1 473.49)" gradientUnits="userSpaceOnUse" x1="12797" x2="12909" href="#gioco-a-br" id="gioco-b-br" y1="-1764.6" y2="-1764.6"></linearGradient>
			<linearGradient id="gioco-a-br">
				<stop offset="0" stop-color="#796c60"></stop>
				<stop offset="1" stop-color="#4b403b"></stop>
			</linearGradient>
			<linearGradient gradientTransform="translate(40.423 -.922)" gradientUnits="userSpaceOnUse" x1="-30.611" x2="-.235" href="#gioco-a-br" id="gioco-c-br" y1="42.165" y2="42.165"></linearGradient>
		</defs>
		<path d="M12.855 10.383v7.663c0 3.268 6.53 3.774 6.53 3.774-.352 9.864-5.036 16.486-5.036 16.486l21.428-.039s-4.651-6.62-5-16.446c0 0 6.896-.507 6.896-3.774v-7.663h-4.72s.459 2.25-.47 3.26c-1.035 1.126-2.418 1.126-3.454 0-.928-1.01-.47-3.26-.47-3.26h-6.59s.459 2.25-.47 3.26c-1.122 1.22-2.699 1.22-3.82 0-.929-1.01-.47-3.26-.47-3.26z" fill="url(#gioco-b-br)" stroke="#1e1e1e" stroke-linejoin="round" stroke-width="1.6"></path>
		<path d="m37.543 10.462.014 7.585c.263 3.48-24.58 2.135-24.523 1.03 2.098 2.532 4.445 2.613 6.352 2.744 7.292.498 9.8 8.89 13.306 16.446h2.97s-4.65-6.62-5-16.446c2.547-.395 2.954-.812 4.037-1.058h.018l-.002-.004c1.023-.236 2.81-1.376 2.842-2.713v-7.663z" opacity=".15"></path>
		<path d="M13.239 38.286c-1.437 0-2.627 1.216-2.627 2.685v.544l.013 2.685h28.75l.012-2.685v-.544c0-1.469-1.19-2.685-2.627-2.685H25z" fill="url(#gioco-c-br)" stroke="#1e1e1e" stroke-linecap="round" stroke-linejoin="round" stroke-width="1.6"></path>
		<g fill="#fff">
			<path d="M13.656 11.168v5.54c.48-1.867.299-4.088 1.554-5.54zM22.877 11.163c.055.896-.154 1.748-.269 2.616.48-1.866 1.823-2.616 1.823-2.616zM16.947 35.312c.875-1.143 3.603-10.333 3.233-13.244.7.39.658 10.057-3.233 13.244zM33.863 11.209c.005.598-.055 1.226-.187 2.02.48-1.867 1.295-2.04 1.295-2.04z" opacity=".25"></path>
		</g>
	</svg>
	<svg class="text-gray-700/70 dark:text-gray-400/70 pointer-events-none"
		xmlns="http://www.w3.org/2000/svg" height="1.7" width="1.7" x="4.221796769724491" y="5.15" viewBox="0 0 50 50" hexboard="false">
		<defs>
			<linearGradient id="gioco-a-bp" gradientTransform="matrix(.94331 0 0 1 615.66 493.37)" gradientUnits="userSpaceOnUse" x1="-639.4" x2="-612.91" y1="-465.15" y2="-465.15">
				<stop offset="0" stop-color="#796c60"></stop>
				<stop offset="1" stop-color="#4b403b"></stop>
			</linearGradient>
		</defs>
		<path d="M25 12.264c-3.56 0-6.447 2.655-6.447 5.93 0 1.705.799 3.326 2.19 4.45h-1.666c-1.312 0-2.4.978-2.4 2.158v.438c0 1.18 1.088 2.157 2.4 2.157h2.376c0 7.293-9.342 6.457-8.689 16.78L25 44.167l12.236.008c.653-10.323-8.689-9.486-8.689-16.779h2.376c1.312 0 2.4-.978 2.4-2.157v-.438c0-1.18-1.087-2.157-2.4-2.157h-1.666c1.391-1.125 2.19-2.747 2.19-4.45 0-3.276-2.886-5.93-6.446-5.931z" fill="url(#gioco-a-bp)" stroke="#1e1e1e" stroke-linejoin="round" stroke-width="1.6"></path>
		<path d="M24.999 12.264c-.521 0-1.028.058-1.513.166 6.257.692 7.675 6.466 4.917 9.222-2.016 1.69-7.662.993-7.662.993 2.56.443 4.97 1.954 7.252 2.488-6.033 11.435 9.7 9.026 9.242 19.043.995-10.592-7.673-8.148-8.689-16.78h2.377c1.312 0 2.398-.977 2.398-2.156v-.438c0-1.18-1.086-2.158-2.398-2.158h-1.667c1.391-1.125 2.191-2.746 2.19-4.449 0-3.276-2.886-5.932-6.447-5.932z" opacity=".15"></path>
		<path d="M22.959 13.401c-1.77 1.602-2.968 3.612-3.476 6.19 0 0-1.16-4.235 3.476-6.19zM13.342 43.419c.273-5.321 2.572-6.184 7.538-11.434-1.03 3.566-7.387 5.868-7.538 11.434z" fill="#fff" opacity=".25"></path>
	</svg>
	<svg class="text-gray-700/70 dark:text-gray-400/70 pointer-events-none"
		xmlns="http://www.w3.org/2000/svg" height="1.7" width="1.7" x="5.953847577293368" y="6.15" viewBox="0 0 50 50" hexboard="false">
		<defs>
			<linearGradient id="gioco-a-bp" gradientTransform="matrix(.94331 0 0 1 615.66 493.37)" gradientUnits="userSpaceOnUse" x1="-639.4" x2="-612.91" y1="-465.15" y2="-465.15">
				<stop offset="0" stop-color="#796c60"></stop>
				<stop offset="1" stop-color="#4b403b"></stop>
			</linearGradient>
		</defs>
		<path d="M25 12.264c-3.56 0-6.447 2.655-6.447 5.93 0 1.705.799 3.326 2.19 4.45h-1.666c-1.312 0-2.4.978-2.4 2.158v.438c0 1.18 1.088 2.157 2.4 2.157h2.376c0 7.293-9.342 6.457-8.689 16.78L25 44.167l12.236.008c.653-10.323-8.689-9.486-8.689-16.779h2.376c1.312 0 2.4-.978 2.4-2.157v-.438c0-1.18-1.087-2.157-2.4-2.157h-1.666c1.391-1.125 2.19-2.747 2.19-4.45 0-3.276-2.886-5.93-6.446-5.931z" fill="url(#gioco-a-bp)" stroke="#1e1e1e" stroke-linejoin="round" stroke-width="1.6"></path>
		<path d="M24.999 12.264c-.521 0-1.028.058-1.513.166 6.257.692 7.675 6.466 4.917 9.222-2.016 1.69-7.662.993-7.662.993 2.56.443 4.97 1.954 7.252 2.488-6.033 11.435 9.7 9.026 9.242 19.043.995-10.592-7.673-8.148-8.689-16.78h2.377c1.312 0 2.398-.977 2.398-2.156v-.438c0-1.18-1.086-2.158-2.398-2.158h-1.667c1.391-1.125 2.191-2.746 2.19-4.449 0-3.276-2.886-5.932-6.447-5.932z" opacity=".15"></path>
		<path d="M22.959 13.401c-1.77 1.602-2.968 3.612-3.476 6.19 0 0-1.16-4.235 3.476-6.19zM13.342 43.419c.273-5.321 2.572-6.184 7.538-11.434-1.03 3.566-7.387 5.868-7.538 11.434z" fill="#fff" opacity=".25"></path>
	</svg>
	<svg class="text-gray-700/70 dark:text-gray-400/70 pointer-events-none"
		xmlns="http://www.w3.org/2000/svg" height="1.7" width="1.7" x="7.685898384862245" y="7.15" viewBox="0 0 50 50" hexboard="false">
		<defs>
			<linearGradient id="gioco-a-bp" gradientTransform="matrix(.94331 0 0 1 615.66 493.37)" gradientUnits="userSpaceOnUse" x1="-639.4" x2="-612.91" y1="-465.15" y2="-465.15">
				<stop offset="0" stop-color="#796c60"></stop>
				<stop offset="1" stop-color="#4b403b"></stop>
			</linearGradient>
		</defs>
		<path d="M25 12.264c-3.56 0-6.447 2.655-6.447 5.93 0 1.705.799 3.326 2.19 4.45h-1.666c-1.312 0-2.4.978-2.4 2.158v.438c0 1.18 1.088 2.157 2.4 2.157h2.376c0 7.293-9.342 6.457-8.689 16.78L25 44.167l12.236.008c.653-10.323-8.689-9.486-8.689-16.779h2.376c1.312 0 2.4-.978 2.4-2.157v-.438c0-1.18-1.087-2.157-2.4-2.157h-1.666c1.391-1.125 2.19-2.747 2.19-4.45 0-3.276-2.886-5.93-6.446-5.931z" fill="url(#gioco-a-bp)" stroke="#1e1e1e" stroke-linejoin="round" stroke-width="1.6"></path>
		<path d="M24.999 12.264c-.521 0-1.028.058-1.513.166 6.257.692 7.675 6.466 4.917 9.222-2.016 1.69-7.662.993-7.662.993 2.56.443 4.97 1.954 7.252 2.488-6.033 11.435 9.7 9.026 9.242 19.043.995-10.592-7.673-8.148-8.689-16.78h2.377c1.312 0 2.398-.977 2.398-2.156v-.438c0-1.18-1.086-2.158-2.398-2.158h-1.667c1.391-1.125 2.191-2.746 2.19-4.449 0-3.276-2.886-5.932-6.447-5.932z" opacity=".15"></path>
		<path d="M22.959 13.401c-1.77 1.602-2.968 3.612-3.476 6.19 0 0-1.16-4.235 3.476-6.19zM13.342 43.419c.273-5.321 2.572-6.184 7.538-11.434-1.03 3.566-7.387 5.868-7.538 11.434z" fill="#fff" opacity=".25"></path>
	</svg>
	<svg class="text-gray-700/70 dark:text-gray-400/70 pointer-events-none"
		xmlns="http://www.w3.org/2000/svg" height="1.7" width="1.7" x="9.417949192431124" y="8.15" viewBox="0 0 50 50" hexboard="false">
		<defs>
			<linearGradient id="gioco-a-bp" gradientTransform="matrix(.94331 0 0 1 615.66 493.37)" gradientUnits="userSpaceOnUse" x1="-639.4" x2="-612.91" y1="-465.15" y2="-465.15">
				<stop offset="0" stop-color="#796c60"></stop>
				<stop offset="1" stop-color="#4b403b"></stop>
			</linearGradient>
		</defs>
		<path d="M25 12.264c-3.56 0-6.447 2.655-6.447 5.93 0 1.705.799 3.326 2.19 4.45h-1.666c-1.312 0-2.4.978-2.4 2.158v.438c0 1.18 1.088 2.157 2.4 2.157h2.376c0 7.293-9.342 6.457-8.689 16.78L25 44.167l12.236.008c.653-10.323-8.689-9.486-8.689-16.779h2.376c1.312 0 2.4-.978 2.4-2.157v-.438c0-1.18-1.087-2.157-2.4-2.157h-1.666c1.391-1.125 2.19-2.747 2.19-4.45 0-3.276-2.886-5.93-6.446-5.931z" fill="url(#gioco-a-bp)" stroke="#1e1e1e" stroke-linejoin="round" stroke-width="1.6"></path>
		<path d="M24.999 12.264c-.521 0-1.028.058-1.513.166 6.257.692 7.675 6.466 4.917 9.222-2.016 1.69-7.662.993-7.662.993 2.56.443 4.97 1.954 7.252 2.488-6.033 11.435 9.7 9.026 9.242 19.043.995-10.592-7.673-8.148-8.689-16.78h2.377c1.312 0 2.398-.977 2.398-2.156v-.438c0-1.18-1.086-2.158-2.398-2.158h-1.667c1.391-1.125 2.191-2.746 2.19-4.449 0-3.276-2.886-5.932-6.447-5.932z" opacity=".15"></path>
		<path d="M22.959 13.401c-1.77 1.602-2.968 3.612-3.476 6.19 0 0-1.16-4.235 3.476-6.19zM13.342 43.419c.273-5.321 2.572-6.184 7.538-11.434-1.03 3.566-7.387 5.868-7.538 11.434z" fill="#fff" opacity=".25"></path>
	</svg>
	<svg class="text-gray-700/70 dark:text-gray-400/70 pointer-events-none"
		xmlns="http://www.w3.org/2000/svg" height="1.7" width="1.7" x="11.15" y="9.15" viewBox="0 0 50 50" hexboard="false">
		<defs>
			<linearGradient id="gioco-a-bp" gradientTransform="matrix(.94331 0 0 1 615.66 493.37)" gradientUnits="userSpaceOnUse" x1="-639.4" x2="-612.91" y1="-465.15" y2="-465.15">
				<stop offset="0" stop-color="#796c60"></stop>
				<stop offset="1" stop-color="#4b403b"></stop>
			</linearGradient>
		</defs>
		<path d="M25 12.264c-3.56 0-6.447 2.655-6.447 5.93 0 1.705.799 3.326 2.19 4.45h-1.666c-1.312 0-2.4.978-2.4 2.158v.438c0 1.18 1.088 2.157 2.4 2.157h2.376c0 7.293-9.342 6.457-8.689 16.78L25 44.167l12.236.008c.653-10.323-8.689-9.486-8.689-16.779h2.376c1.312 0 2.4-.978 2.4-2.157v-.438c0-1.18-1.087-2.157-2.4-2.157h-1.666c1.391-1.125 2.19-2.747 2.19-4.45 0-3.276-2.886-5.93-6.446-5.931z" fill="url(#gioco-a-bp)" stroke="#1e1e1e" stroke-linejoin="round" stroke-width="1.6"></path>
		<path d="M24.999 12.264c-.521 0-1.028.058-1.513.166 6.257.692 7.675 6.466 4.917 9.222-2.016 1.69-7.662.993-7.662.993 2.56.443 4.97 1.954 7.252 2.488-6.033 11.435 9.7 9.026 9.242 19.043.995-10.592-7.673-8.148-8.689-16.78h2.377c1.312 0 2.398-.977 2.398-2.156v-.438c0-1.18-1.086-2.158-2.398-2.158h-1.667c1.391-1.125 2.191-2.746 2.19-4.449 0-3.276-2.886-5.932-6.447-5.932z" opacity=".15"></path>
		<path d="M22.959 13.401c-1.77 1.602-2.968 3.612-3.476 6.19 0 0-1.16-4.235 3.476-6.19zM13.342 43.419c.273-5.321 2.572-6.184 7.538-11.434-1.03 3.566-7.387 5.868-7.538 11.434z" fill="#fff" opacity=".25"></path>
	</svg>
	<svg class="text-gray-700/70 dark:text-gray-400/70 pointer-events-none"
		xmlns="http://www.w3.org/2000/svg" height="1.7" width="1.7" x="12.882050807568877" y="8.15" viewBox="0 0 50 50" hexboard="false">
		<defs>
			<linearGradient id="gioco-a-bp" gradientTransform="matrix(.94331 0 0 1 615.66 493.37)" gradientUnits="userSpaceOnUse" x1="-639.4" x2="-612.91" y1="-465.15" y2="-465.15">
				<stop offset="0" stop-color="#796c60"></stop>
				<stop offset="1" stop-color="#4b403b"></stop>
			</linearGradient>
		</defs>
		<path d="M25 12.264c-3.56 0-6.447 2.655-6.447 5.93 0 1.705.799 3.326 2.19 4.45h-1.666c-1.312 0-2.4.978-2.4 2.158v.438c0 1.18 1.088 2.157 2.4 2.157h2.376c0 7.293-9.342 6.457-8.689 16.78L25 44.167l12.236.008c.653-10.323-8.689-9.486-8.689-16.779h2.376c1.312 0 2.4-.978 2.4-2.157v-.438c0-1.18-1.087-2.157-2.4-2.157h-1.666c1.391-1.125 2.19-2.747 2.19-4.45 0-3.276-2.886-5.93-6.446-5.931z" fill="url(#gioco-a-bp)" stroke="#1e1e1e" stroke-linejoin="round" stroke-width="1.6"></path>
		<path d="M24.999 12.264c-.521 0-1.028.058-1.513.166 6.257.692 7.675 6.466 4.917 9.222-2.016 1.69-7.662.993-7.662.993 2.56.443 4.97 1.954 7.252 2.488-6.033 11.435 9.7 9.026 9.242 19.043.995-10.592-7.673-8.148-8.689-16.78h2.377c1.312 0 2.398-.977 2.398-2.156v-.438c0-1.18-1.086-2.158-2.398-2.158h-1.667c1.391-1.125 2.191-2.746 2.19-4.449 0-3.276-2.886-5.932-6.447-5.932z" opacity=".15"></path>
		<path d="M22.959 13.401c-1.77 1.602-2.968 3.612-3.476 6.19 0 0-1.16-4.235 3.476-6.19zM13.342 43.419c.273-5.321 2.572-6.184 7.538-11.434-1.03 3.566-7.387 5.868-7.538 11.434z" fill="#fff" opacity=".25"></path>
	</svg>
	<svg class="text-gray-700/70 dark:text-gray-400/70 pointer-events-none"
		xmlns="http://www.w3.org/2000/svg" height="1.7" width="1.7" x="14.614101615137756" y="7.15" viewBox="0 0 50 50" hexboard="false">
		<defs>
			<linearGradient id="gioco-a-bp" gradientTransform="matrix(.94331 0 0 1 615.66 493.37)" gradientUnits="userSpaceOnUse" x1="-639.4" x2="-612.91" y1="-465.15" y2="-465.15">
				<stop offset="0" stop-color="#796c60"></stop>
				<stop offset="1" stop-color="#4b403b"></stop>
			</linearGradient>
		</defs>
		<path d="M25 12.264c-3.56 0-6.447 2.655-6.447 5.93 0 1.705.799 3.326 2.19 4.45h-1.666c-1.312 0-2.4.978-2.4 2.158v.438c0 1.18 1.088 2.157 2.4 2.157h2.376c0 7.293-9.342 6.457-8.689 16.78L25 44.167l12.236.008c.653-10.323-8.689-9.486-8.689-16.779h2.376c1.312 0 2.4-.978 2.4-2.157v-.438c0-1.18-1.087-2.157-2.4-2.157h-1.666c1.391-1.125 2.19-2.747 2.19-4.45 0-3.276-2.886-5.93-6.446-5.931z" fill="url(#gioco-a-bp)" stroke="#1e1e1e" stroke-linejoin="round" stroke-width="1.6"></path>
		<path d="M24.999 12.264c-.521 0-1.028.058-1.513.166 6.257.692 7.675 6.466 4.917 9.222-2.016 1.69-7.662.993-7.662.993 2.56.443 4.97 1.954 7.252 2.488-6.033 11.435 9.7 9.026 9.242 19.043.995-10.592-7.673-8.148-8.689-16.78h2.377c1.312 0 2.398-.977 2.398-2.156v-.438c0-1.18-1.086-2.158-2.398-2.158h-1.667c1.391-1.125 2.191-2.746 2.19-4.449 0-3.276-2.886-5.932-6.447-5.932z" opacity=".15"></path>
		<path d="M22.959 13.401c-1.77 1.602-2.968 3.612-3.476 6.19 0 0-1.16-4.235 3.476-6.19zM13.342 43.419c.273-5.321 2.572-6.184 7.538-11.434-1.03 3.566-7.387 5.868-7.538 11.434z" fill="#fff" opacity=".25"></path>
	</svg>
	<svg class="text-gray-700/70 dark:text-gray-400/70 pointer-events-none"
		xmlns="http://www.w3.org/2000/svg" height="1.7" width="1.7" x="16.34615242270663" y="6.15" viewBox="0 0 50 50" hexboard="false">
		<defs>
			<linearGradient id="gioco-a-bp" gradientTransform="matrix(.94331 0 0 1 615.66 493.37)" gradientUnits="userSpaceOnUse" x1="-639.4" x2="-612.91" y1="-465.15" y2="-465.15">
				<stop offset="0" stop-color="#796c60"></stop>
				<stop offset="1" stop-color="#4b403b"></stop>
			</linearGradient>
		</defs>
		<path d="M25 12.264c-3.56 0-6.447 2.655-6.447 5.93 0 1.705.799 3.326 2.19 4.45h-1.666c-1.312 0-2.4.978-2.4 2.158v.438c0 1.18 1.088 2.157 2.4 2.157h2.376c0 7.293-9.342 6.457-8.689 16.78L25 44.167l12.236.008c.653-10.323-8.689-9.486-8.689-16.779h2.376c1.312 0 2.4-.978 2.4-2.157v-.438c0-1.18-1.087-2.157-2.4-2.157h-1.666c1.391-1.125 2.19-2.747 2.19-4.45 0-3.276-2.886-5.93-6.446-5.931z" fill="url(#gioco-a-bp)" stroke="#1e1e1e" stroke-linejoin="round" stroke-width="1.6"></path>
		<path d="M24.999 12.264c-.521 0-1.028.058-1.513.166 6.257.692 7.675 6.466 4.917 9.222-2.016 1.69-7.662.993-7.662.993 2.56.443 4.97 1.954 7.252 2.488-6.033 11.435 9.7 9.026 9.242 19.043.995-10.592-7.673-8.148-8.689-16.78h2.377c1.312 0 2.398-.977 2.398-2.156v-.438c0-1.18-1.086-2.158-2.398-2.158h-1.667c1.391-1.125 2.191-2.746 2.19-4.449 0-3.276-2.886-5.932-6.447-5.932z" opacity=".15"></path>
		<path d="M22.959 13.401c-1.77 1.602-2.968 3.612-3.476 6.19 0 0-1.16-4.235 3.476-6.19zM13.342 43.419c.273-5.321 2.572-6.184 7.538-11.434-1.03 3.566-7.387 5.868-7.538 11.434z" fill="#fff" opacity=".25"></path>
	</svg>
	<svg class="text-gray-700/70 dark:text-gray-400/70 pointer-events-none"
		xmlns="http://www.w3.org/2000/svg" height="1.7" width="1.7" x="18.07820323027551" y="5.15" viewBox="0 0 50 50" hexboard="false">
		<defs>
			<linearGradient id="gioco-a-bp" gradientTransform="matrix(.94331 0 0 1 615.66 493.37)" gradientUnits="userSpaceOnUse" x1="-639.4" x2="-612.91" y1="-465.15" y2="-465.15">
				<stop offset="0" stop-color="#796c60"></stop>
				<stop offset="1" stop-color="#4b403b"></stop>
			</linearGradient>
		</defs>
		<path d="M25 12.264c-3.56 0-6.447 2.655-6.447 5.93 0 1.705.799 3.326 2.19 4.45h-1.666c-1.312 0-2.4.978-2.4 2.158v.438c0 1.18 1.088 2.157 2.4 2.157h2.376c0 7.293-9.342 6.457-8.689 16.78L25 44.167l12.236.008c.653-10.323-8.689-9.486-8.689-16.779h2.376c1.312 0 2.4-.978 2.4-2.157v-.438c0-1.18-1.087-2.157-2.4-2.157h-1.666c1.391-1.125 2.19-2.747 2.19-4.45 0-3.276-2.886-5.93-6.446-5.931z" fill="url(#gioco-a-bp)" stroke="#1e1e1e" stroke-linejoin="round" stroke-width="1.6"></path>
		<path d="M24.999 12.264c-.521 0-1.028.058-1.513.166 6.257.692 7.675 6.466 4.917 9.222-2.016 1.69-7.662.993-7.662.993 2.56.443 4.97 1.954 7.252 2.488-6.033 11.435 9.7 9.026 9.242 19.043.995-10.592-7.673-8.148-8.689-16.78h2.377c1.312 0 2.398-.977 2.398-2.156v-.438c0-1.18-1.086-2.158-2.398-2.158h-1.667c1.391-1.125 2.191-2.746 2.19-4.449 0-3.276-2.886-5.932-6.447-5.932z" opacity=".15"></path>
		<path d="M22.959 13.401c-1.77 1.602-2.968 3.612-3.476 6.19 0 0-1.16-4.235 3.476-6.19zM13.342 43.419c.273-5.321 2.572-6.184 7.538-11.434-1.03 3.566-7.387 5.868-7.538 11.434z" fill="#fff" opacity=".25"></path>
	</svg>
	<svg class="text-gray-700/70 dark:text-gray-400/70 pointer-events-none"
		xmlns="http://www.w3.org/2000/svg" height="1.7" width="1.7" x="11.15" y="13.15" viewBox="0 0 50 50" hexboard="false">
		<defs>
			<linearGradient id="gioco-a-wp" gradientTransform="matrix(.94331 0 0 1 615.66 493.37)" gradientUnits="userSpaceOnUse" x1="-639.4" x2="-612.91" y1="-465.15" y2="-465.15">
				<stop offset="0" stop-color="#fff"></stop>
				<stop offset="1" stop-color="#bba38a"></stop>
			</linearGradient>
		</defs>
		<path d="M25 12.264c-3.56 0-6.447 2.655-6.447 5.93 0 1.705.799 3.326 2.19 4.45h-1.666c-1.312 0-2.4.978-2.4 2.158v.438c0 1.18 1.088 2.157 2.4 2.157h2.376c0 7.293-9.342 6.457-8.689 16.78L25 44.167l12.236.008c.653-10.323-8.689-9.486-8.689-16.779h2.376c1.312 0 2.4-.978 2.4-2.157v-.438c0-1.18-1.087-2.157-2.4-2.157h-1.666c1.391-1.125 2.19-2.747 2.19-4.45 0-3.276-2.886-5.93-6.446-5.931z" fill="url(#gioco-a-wp)" stroke="#323232" stroke-linejoin="round" stroke-width="1.6"></path>
		<path d="M24.999 12.264c-.521 0-1.028.058-1.513.166 6.257.692 7.675 6.466 4.917 9.222-2.016 1.69-7.662.993-7.662.993 2.56.443 4.97 1.954 7.252 2.488-6.033 11.435 9.7 9.026 9.242 19.043.995-10.592-7.673-8.148-8.689-16.78h2.377c1.312 0 2.398-.977 2.398-2.156v-.438c0-1.18-1.086-2.158-2.398-2.158h-1.667c1.391-1.125 2.191-2.746 2.19-4.449 0-3.276-2.886-5.932-6.447-5.932z" opacity=".15"></path>
		<path d="M22.959 13.401c-1.77 1.602-2.968 3.612-3.476 6.19 0 0-1.16-4.235 3.476-6.19zM13.342 43.419c.273-5.321 2.572-6.184 7.538-11.434-1.03 3.566-7.387 5.868-7.538 11.434z" fill="#fff"></path>
	</svg>
	<svg class="text-gray-700/70 dark:text-gray-400/70 pointer-events-none"
		xmlns="http://www.w3.org/2000/svg" height="1.7" width="1.7" x="9.417949192431124" y="14.15" viewBox="0 0 50 50" hexboard="false">
		<defs>
			<linearGradient id="gioco-a-wp" gradientTransform="matrix(.94331 0 0 1 615.66 493.37)" gradientUnits="userSpaceOnUse" x1="-639.4" x2="-612.91" y1="-465.15" y2="-465.15">
				<stop offset="0" stop-color="#fff"></stop>
				<stop offset="1" stop-color="#bba38a"></stop>
			</linearGradient>
		</defs>
		<path d="M25 12.264c-3.56 0-6.447 2.655-6.447 5.93 0 1.705.799 3.326 2.19 4.45h-1.666c-1.312 0-2.4.978-2.4 2.158v.438c0 1.18 1.088 2.157 2.4 2.157h2.376c0 7.293-9.342 6.457-8.689 16.78L25 44.167l12.236.008c.653-10.323-8.689-9.486-8.689-16.779h2.376c1.312 0 2.4-.978 2.4-2.157v-.438c0-1.18-1.087-2.157-2.4-2.157h-1.666c1.391-1.125 2.19-2.747 2.19-4.45 0-3.276-2.886-5.93-6.446-5.931z" fill="url(#gioco-a-wp)" stroke="#323232" stroke-linejoin="round" stroke-width="1.6"></path>
		<path d="M24.999 12.264c-.521 0-1.028.058-1.513.166 6.257.692 7.675 6.466 4.917 9.222-2.016 1.69-7.662.993-7.662.993 2.56.443 4.97 1.954 7.252 2.488-6.033 11.435 9.7 9.026 9.242 19.043.995-10.592-7.673-8.148-8.689-16.78h2.377c1.312 0 2.398-.977 2.398-2.156v-.438c0-1.18-1.086-2.158-2.398-2.158h-1.667c1.391-1.125 2.191-2.746 2.19-4.449 0-3.276-2.886-5.932-6.447-5.932z" opacity=".15"></path>
		<path d="M22.959 13.401c-1.77 1.602-2.968 3.612-3.476 6.19 0 0-1.16-4.235 3.476-6.19zM13.342 43.419c.273-5.321 2.572-6.184 7.538-11.434-1.03 3.566-7.387 5.868-7.538 11.434z" fill="#fff"></path>
	</svg>
	<svg class="text-gray-700/70 dark:text-gray-400/70 pointer-events-none"
		xmlns="http://www.w3.org/2000/svg" height="1.7" width="1.7" x="12.882050807568877" y="14.15" viewBox="0 0 50 50" hexboard="false">
		<defs>
			<linearGradient id="gioco-a-wp" gradientTransform="matrix(.94331 0 0 1 615.66 493.37)" gradientUnits="userSpaceOnUse" x1="-639.4" x2="-612.91" y1="-465.15" y2="-465.15">
				<stop offset="0" stop-color="#fff"></stop>
				<stop offset="1" stop-color="#bba38a"></stop>
			</linearGradient>
		</defs>
		<path d="M25 12.264c-3.56 0-6.447 2.655-6.447 5.93 0 1.705.799 3.326 2.19 4.45h-1.666c-1.312 0-2.4.978-2.4 2.158v.438c0 1.18 1.088 2.157 2.4 2.157h2.376c0 7.293-9.342 6.457-8.689 16.78L25 44.167l12.236.008c.653-10.323-8.689-9.486-8.689-16.779h2.376c1.312 0 2.4-.978 2.4-2.157v-.438c0-1.18-1.087-2.157-2.4-2.157h-1.666c1.391-1.125 2.19-2.747 2.19-4.45 0-3.276-2.886-5.93-6.446-5.931z" fill="url(#gioco-a-wp)" stroke="#323232" stroke-linejoin="round" stroke-width="1.6"></path>
		<path d="M24.999 12.264c-.521 0-1.028.058-1.513.166 6.257.692 7.675 6.466 4.917 9.222-2.016 1.69-7.662.993-7.662.993 2.56.443 4.97 1.954 7.252 2.488-6.033 11.435 9.7 9.026 9.242 19.043.995-10.592-7.673-8.148-8.689-16.78h2.377c1.312 0 2.398-.977 2.398-2.156v-.438c0-1.18-1.086-2.158-2.398-2.158h-1.667c1.391-1.125 2.191-2.746 2.19-4.449 0-3.276-2.886-5.932-6.447-5.932z" opacity=".15"></path>
		<path d="M22.959 13.401c-1.77 1.602-2.968 3.612-3.476 6.19 0 0-1.16-4.235 3.476-6.19zM13.342 43.419c.273-5.321 2.572-6.184 7.538-11.434-1.03 3.566-7.387 5.868-7.538 11.434z" fill="#fff"></path>
	</svg>
	<svg class="text-gray-700/70 dark:text-gray-400/70 pointer-events-none"
		xmlns="http://www.w3.org/2000/svg" height="1.7" width="1.7" x="7.685898384862245" y="15.15" viewBox="0 0 50 50" hexboard="false">
		<defs>
			<linearGradient id="gioco-a-wp" gradientTransform="matrix(.94331 0 0 1 615.66 493.37)" gradientUnits="userSpaceOnUse" x1="-639.4" x2="-612.91" y1="-465.15" y2="-465.15">
				<stop offset="0" stop-color="#fff"></stop>
				<stop offset="1" stop-color="#bba38a"></stop>
			</linearGradient>
		</defs>
		<path d="M25 12.264c-3.56 0-6.447 2.655-6.447 5.93 0 1.705.799 3.326 2.19 4.45h-1.666c-1.312 0-2.4.978-2.4 2.158v.438c0 1.18 1.088 2.157 2.4 2.157h2.376c0 7.293-9.342 6.457-8.689 16.78L25 44.167l12.236.008c.653-10.323-8.689-9.486-8.689-16.779h2.376c1.312 0 2.4-.978 2.4-2.157v-.438c0-1.18-1.087-2.157-2.4-2.157h-1.666c1.391-1.125 2.19-2.747 2.19-4.45 0-3.276-2.886-5.93-6.446-5.931z" fill="url(#gioco-a-wp)" stroke="#323232" stroke-linejoin="round" stroke-width="1.6"></path>
		<path d="M24.999 12.264c-.521 0-1.028.058-1.513.166 6.257.692 7.675 6.466 4.917 9.222-2.016 1.69-7.662.993-7.662.993 2.56.443 4.97 1.954 7.252 2.488-6.033 11.435 9.7 9.026 9.242 19.043.995-10.592-7.673-8.148-8.689-16.78h2.377c1.312 0 2.398-.977 2.398-2.156v-.438c0-1.18-1.086-2.158-2.398-2.158h-1.667c1.391-1.125 2.191-2.746 2.19-4.449 0-3.276-2.886-5.932-6.447-5.932z" opacity=".15"></path>
		<path d="M22.959 13.401c-1.77 1.602-2.968 3.612-3.476 6.19 0 0-1.16-4.235 3.476-6.19zM13.342 43.419c.273-5.321 2.572-6.184 7.538-11.434-1.03 3.566-7.387 5.868-7.538 11.434z" fill="#fff"></path>
	</svg>
	<svg class="text-gray-700/70 dark:text-gray-400/70 pointer-events-none"
		xmlns="http://www.w3.org/2000/svg" height="1.7" width="1.7" x="11.15" y="17.15" viewBox="0 0 50 50" hexboard="false">
		<defs>
			<linearGradient gradientTransform="matrix(1.019 0 0 1.0751 -3392.3 527.45)" gradientUnits="userSpaceOnUse" x1="3341.2" x2="3366.2" href="#gioco-a-wb" id="gioco-b-wb" y1="-469.26" y2="-469.26"></linearGradient>
			<linearGradient id="gioco-a-wb">
				<stop offset="0" stop-color="#fff"></stop>
				<stop offset="1" stop-color="#bba38a"></stop>
			</linearGradient>
			<linearGradient gradientTransform="matrix(1.1509 0 0 1.1499 214.24 -138.92)" gradientUnits="userSpaceOnUse" x1="-177.63" x2="-151.24" href="#gioco-a-wb" id="gioco-c-wb" y1="156.68" y2="156.68"></linearGradient>
		</defs>
		<path d="M26.87 8.223c-5.797-2.298-6.952 2.527-4.668 5.86-9.898 10.6-11.253 16.425-6.195 24.204h17.99c6.084-6.912 2.558-14.515-4.823-22.3-2.883 4.119-3.274 7.35-3.946 11.131l-3.62-.071c-.66-6.006 7.622-15.14 5.261-18.823z" fill="url(#gioco-b-wb)" stroke="#323232" stroke-linejoin="round" stroke-width="1.6"></path>
		<path d="M24.933 7.654c-.625.02-.207.197-.771.567 0 .003.01.006.01.008 3.582-.311-2.369 11.772-3.394 18.894.536-3.014 1.325-5.68 3.082-8.725 2.003-4.351 4.237-8.681 3.008-10.169-.411-.38-1.144-.601-1.934-.575zm4.24 8.338c-.6.856-.517.67-.972 1.462 6.004 6.049 8.728 13.787 3.097 20.838h2.696c6.085-6.912 2.56-14.515-4.822-22.3z" opacity=".1"></path>
		<path d="M13.24 38.286c-1.437 0-2.627 1.216-2.627 2.685v.545l.013 2.684h28.749l.012-2.684v-.545c0-1.468-1.19-2.685-2.627-2.685H25z" fill="url(#gioco-c-wb)" stroke="#323232" stroke-linecap="round" stroke-linejoin="round" stroke-width="1.6"></path>
		<path d="M14.895 34.327c-.716-1.396-3.266-6.812 4.513-15.739-2.1 4.86-5.958 8.69-4.513 15.739z" fill="#fff"></path>
	</svg>
	<svg class="text-gray-700/70 dark:text-gray-400/70 pointer-events-none"
		xmlns="http://www.w3.org/2000/svg" height="1.7" width="1.7" x="14.614101615137756" y="15.15" viewBox="0 0 50 50" hexboard="false">
		<defs>
			<linearGradient id="gioco-a-wp" gradientTransform="matrix(.94331 0 0 1 615.66 493.37)" gradientUnits="userSpaceOnUse" x1="-639.4" x2="-612.91" y1="-465.15" y2="-465.15">
				<stop offset="0" stop-color="#fff"></stop>
				<stop offset="1" stop-color="#bba38a"></stop>
			</linearGradient>
		</defs>
		<path d="M25 12.264c-3.56 0-6.447 2.655-6.447 5.93 0 1.705.799 3.326 2.19 4.45h-1.666c-1.312 0-2.4.978-2.4 2.158v.438c0 1.18 1.088 2.157 2.4 2.157h2.376c0 7.293-9.342 6.457-8.689 16.78L25 44.167l12.236.008c.653-10.323-8.689-9.486-8.689-16.779h2.376c1.312 0 2.4-.978 2.4-2.157v-.438c0-1.18-1.087-2.157-2.4-2.157h-1.666c1.391-1.125 2.19-2.747 2.19-4.45 0-3.276-2.886-5.93-6.446-5.931z" fill="url(#gioco-a-wp)" stroke="#323232" stroke-linejoin="round" stroke-width="1.6"></path>
		<path d="M24.999 12.264c-.521 0-1.028.058-1.513.166 6.257.692 7.675 6.466 4.917 9.222-2.016 1.69-7.662.993-7.662.993 2.56.443 4.97 1.954 7.252 2.488-6.033 11.435 9.7 9.026 9.242 19.043.995-10.592-7.673-8.148-8.689-16.78h2.377c1.312 0 2.398-.977 2.398-2.156v-.438c0-1.18-1.086-2.158-2.398-2.158h-1.667c1.391-1.125 2.191-2.746 2.19-4.449 0-3.276-2.886-5.932-6.447-5.932z" opacity=".15"></path>
		<path d="M22.959 13.401c-1.77 1.602-2.968 3.612-3.476 6.19 0 0-1.16-4.235 3.476-6.19zM13.342 43.419c.273-5.321 2.572-6.184 7.538-11.434-1.03 3.566-7.387 5.868-7.538 11.434z" fill="#fff"></path>
	</svg>
	<svg class="text-gray-700/70 dark:text-gray-400/70 pointer-events-none"
		xmlns="http://www.w3.org/2000/svg" height="1.7" width="1.7" x="5.953847577293368" y="16.15" viewBox="0 0 50 50" hexboard="false">
		<defs>
			<linearGradient id="gioco-a-wp" gradientTransform="matrix(.94331 0 0 1 615.66 493.37)" gradientUnits="userSpaceOnUse" x1="-639.4" x2="-612.91" y1="-465.15" y2="-465.15">
				<stop offset="0" stop-color="#fff"></stop>
				<stop offset="1" stop-color="#bba38a"></stop>
			</linearGradient>
		</defs>
		<path d="M25 12.264c-3.56 0-6.447 2.655-6.447 5.93 0 1.705.799 3.326 2.19 4.45h-1.666c-1.312 0-2.4.978-2.4 2.158v.438c0 1.18 1.088 2.157 2.4 2.157h2.376c0 7.293-9.342 6.457-8.689 16.78L25 44.167l12.236.008c.653-10.323-8.689-9.486-8.689-16.779h2.376c1.312 0 2.4-.978 2.4-2.157v-.438c0-1.18-1.087-2.157-2.4-2.157h-1.666c1.391-1.125 2.19-2.747 2.19-4.45 0-3.276-2.886-5.93-6.446-5.931z" fill="url(#gioco-a-wp)" stroke="#323232" stroke-linejoin="round" stroke-width="1.6"></path>
		<path d="M24.999 12.264c-.521 0-1.028.058-1.513.166 6.257.692 7.675 6.466 4.917 9.222-2.016 1.69-7.662.993-7.662.993 2.56.443 4.97 1.954 7.252 2.488-6.033 11.435 9.7 9.026 9.242 19.043.995-10.592-7.673-8.148-8.689-16.78h2.377c1.312 0 2.398-.977 2.398-2.156v-.438c0-1.18-1.086-2.158-2.398-2.158h-1.667c1.391-1.125 2.191-2.746 2.19-4.449 0-3.276-2.886-5.932-6.447-5.932z" opacity=".15"></path>
		<path d="M22.959 13.401c-1.77 1.602-2.968 3.612-3.476 6.19 0 0-1.16-4.235 3.476-6.19zM13.342 43.419c.273-5.321 2.572-6.184 7.538-11.434-1.03 3.566-7.387 5.868-7.538 11.434z" fill="#fff"></path>
	</svg>
	<svg class="text-gray-700/70 dark:text-gray-400/70 pointer-events-none"
		xmlns="http://www.w3.org/2000/svg" height="1.7" width="1.7" x="11.15" y="19.15" viewBox="0 0 50 50" hexboard="false">
		<defs>
			<linearGradient gradientTransform="matrix(1.019 0 0 1.0751 -3392.3 527.45)" gradientUnits="userSpaceOnUse" x1="3341.2" x2="3366.2" href="#gioco-a-wb" id="gioco-b-wb" y1="-469.26" y2="-469.26"></linearGradient>
			<linearGradient id="gioco-a-wb">
				<stop offset="0" stop-color="#fff"></stop>
				<stop offset="1" stop-color="#bba38a"></stop>
			</linearGradient>
			<linearGradient gradientTransform="matrix(1.1509 0 0 1.1499 214.24 -138.92)" gradientUnits="userSpaceOnUse" x1="-177.63" x2="-151.24" href="#gioco-a-wb" id="gioco-c-wb" y1="156.68" y2="156.68"></linearGradient>
		</defs>
		<path d="M26.87 8.223c-5.797-2.298-6.952 2.527-4.668 5.86-9.898 10.6-11.253 16.425-6.195 24.204h17.99c6.084-6.912 2.558-14.515-4.823-22.3-2.883 4.119-3.274 7.35-3.946 11.131l-3.62-.071c-.66-6.006 7.622-15.14 5.261-18.823z" fill="url(#gioco-b-wb)" stroke="#323232" stroke-linejoin="round" stroke-width="1.6"></path>
		<path d="M24.933 7.654c-.625.02-.207.197-.771.567 0 .003.01.006.01.008 3.582-.311-2.369 11.772-3.394 18.894.536-3.014 1.325-5.68 3.082-8.725 2.003-4.351 4.237-8.681 3.008-10.169-.411-.38-1.144-.601-1.934-.575zm4.24 8.338c-.6.856-.517.67-.972 1.462 6.004 6.049 8.728 13.787 3.097 20.838h2.696c6.085-6.912 2.56-14.515-4.822-22.3z" opacity=".1"></path>
		<path d="M13.24 38.286c-1.437 0-2.627 1.216-2.627 2.685v.545l.013 2.684h28.749l.012-2.684v-.545c0-1.468-1.19-2.685-2.627-2.685H25z" fill="url(#gioco-c-wb)" stroke="#323232" stroke-linecap="round" stroke-linejoin="round" stroke-width="1.6"></path>
		<path d="M14.895 34.327c-.716-1.396-3.266-6.812 4.513-15.739-2.1 4.86-5.958 8.69-4.513 15.739z" fill="#fff"></path>
	</svg>
	<svg class="text-gray-700/70 dark:text-gray-400/70 pointer-events-none"
		xmlns="http://www.w3.org/2000/svg" height="1.7" width="1.7" x="16.34615242270663" y="16.15" viewBox="0 0 50 50" hexboard="false">
		<defs>
			<linearGradient id="gioco-a-wp" gradientTransform="matrix(.94331 0 0 1 615.66 493.37)" gradientUnits="userSpaceOnUse" x1="-639.4" x2="-612.91" y1="-465.15" y2="-465.15">
				<stop offset="0" stop-color="#fff"></stop>
				<stop offset="1" stop-color="#bba38a"></stop>
			</linearGradient>
		</defs>
		<path d="M25 12.264c-3.56 0-6.447 2.655-6.447 5.93 0 1.705.799 3.326 2.19 4.45h-1.666c-1.312 0-2.4.978-2.4 2.158v.438c0 1.18 1.088 2.157 2.4 2.157h2.376c0 7.293-9.342 6.457-8.689 16.78L25 44.167l12.236.008c.653-10.323-8.689-9.486-8.689-16.779h2.376c1.312 0 2.4-.978 2.4-2.157v-.438c0-1.18-1.087-2.157-2.4-2.157h-1.666c1.391-1.125 2.19-2.747 2.19-4.45 0-3.276-2.886-5.93-6.446-5.931z" fill="url(#gioco-a-wp)" stroke="#323232" stroke-linejoin="round" stroke-width="1.6"></path>
		<path d="M24.999 12.264c-.521 0-1.028.058-1.513.166 6.257.692 7.675 6.466 4.917 9.222-2.016 1.69-7.662.993-7.662.993 2.56.443 4.97 1.954 7.252 2.488-6.033 11.435 9.7 9.026 9.242 19.043.995-10.592-7.673-8.148-8.689-16.78h2.377c1.312 0 2.398-.977 2.398-2.156v-.438c0-1.18-1.086-2.158-2.398-2.158h-1.667c1.391-1.125 2.191-2.746 2.19-4.449 0-3.276-2.886-5.932-6.447-5.932z" opacity=".15"></path>
		<path d="M22.959 13.401c-1.77 1.602-2.968 3.612-3.476 6.19 0 0-1.16-4.235 3.476-6.19zM13.342 43.419c.273-5.321 2.572-6.184 7.538-11.434-1.03 3.566-7.387 5.868-7.538 11.434z" fill="#fff"></path>
	</svg>
	<svg class="text-gray-700/70 dark:text-gray-400/70 pointer-events-none"
		xmlns="http://www.w3.org/2000/svg" height="1.7" width="1.7" x="4.221796769724491" y="17.15" viewBox="0 0 50 50" hexboard="false">
		<defs>
			<linearGradient id="gioco-a-wp" gradientTransform="matrix(.94331 0 0 1 615.66 493.37)" gradientUnits="userSpaceOnUse" x1="-639.4" x2="-612.91" y1="-465.15" y2="-465.15">
				<stop offset="0" stop-color="#fff"></stop>
				<stop offset="1" stop-color="#bba38a"></stop>
			</linearGradient>
		</defs>
		<path d="M25 12.264c-3.56 0-6.447 2.655-6.447 5.93 0 1.705.799 3.326 2.19 4.45h-1.666c-1.312 0-2.4.978-2.4 2.158v.438c0 1.18 1.088 2.157 2.4 2.157h2.376c0 7.293-9.342 6.457-8.689 16.78L25 44.167l12.236.008c.653-10.323-8.689-9.486-8.689-16.779h2.376c1.312 0 2.4-.978 2.4-2.157v-.438c0-1.18-1.087-2.157-2.4-2.157h-1.666c1.391-1.125 2.19-2.747 2.19-4.45 0-3.276-2.886-5.93-6.446-5.931z" fill="url(#gioco-a-wp)" stroke="#323232" stroke-linejoin="round" stroke-width="1.6"></path>
		<path d="M24.999 12.264c-.521 0-1.028.058-1.513.166 6.257.692 7.675 6.466 4.917 9.222-2.016 1.69-7.662.993-7.662.993 2.56.443 4.97 1.954 7.252 2.488-6.033 11.435 9.7 9.026 9.242 19.043.995-10.592-7.673-8.148-8.689-16.78h2.377c1.312 0 2.398-.977 2.398-2.156v-.438c0-1.18-1.086-2.158-2.398-2.158h-1.667c1.391-1.125 2.191-2.746 2.19-4.449 0-3.276-2.886-5.932-6.447-5.932z" opacity=".15"></path>
		<path d="M22.959 13.401c-1.77 1.602-2.968 3.612-3.476 6.19 0 0-1.16-4.235 3.476-6.19zM13.342 43.419c.273-5.321 2.572-6.184 7.538-11.434-1.03 3.566-7.387 5.868-7.538 11.434z" fill="#fff"></path>
	</svg>
	<svg class="text-gray-700/70 dark:text-gray-400/70 pointer-events-none"
		xmlns="http://www.w3.org/2000/svg" height="1.7" width="1.7" x="5.953847577293368" y="18.15" viewBox="0 0 50 50" hexboard="false">
		<defs>
			<linearGradient gradientTransform="translate(582.87 492.95)" gradientUnits="userSpaceOnUse" x1="-570.82" x2="-544.4" href="#gioco-a-wr" id="gioco-b-wr" y1="-468.61" y2="-468.61"></linearGradient>
			<linearGradient id="gioco-a-wr">
				<stop offset="0" stop-color="#fff"></stop>
				<stop offset="1" stop-color="#bba38a"></stop>
			</linearGradient>
			<linearGradient gradientTransform="translate(582.87 492.95)" gradientUnits="userSpaceOnUse" x1="-573.06" x2="-542.69" href="#gioco-a-wr" id="gioco-c-wr" y1="-451.71" y2="-451.71"></linearGradient>
		</defs>
		<path d="M12.855 10.383v7.663c0 3.268 6.53 3.774 6.53 3.774-.352 9.864-5.036 16.486-5.036 16.486l21.428-.039s-4.651-6.62-5-16.446c0 0 6.896-.507 6.896-3.774v-7.663h-4.72s.459 2.25-.47 3.26c-1.035 1.126-2.418 1.126-3.454 0-.928-1.01-.47-3.26-.47-3.26h-6.59s.459 2.25-.47 3.26c-1.122 1.22-2.699 1.22-3.82 0-.929-1.01-.47-3.26-.47-3.26z" fill="url(#gioco-b-wr)" stroke="#323232" stroke-linejoin="round" stroke-width="1.6"></path>
		<path d="m37.543 10.462.014 7.585c.263 3.48-24.58 2.135-24.523 1.03 2.098 2.532 4.445 2.613 6.352 2.744 7.292.498 9.8 8.89 13.306 16.446h2.97s-4.65-6.62-5-16.446c2.547-.395 2.954-.812 4.037-1.058h.018l-.002-.004c1.023-.236 2.81-1.376 2.842-2.713v-7.663z" opacity=".1"></path>
		<path d="M13.239 38.286c-1.437 0-2.627 1.216-2.627 2.685v.544l.013 2.685h28.75l.012-2.685v-.544c0-1.469-1.19-2.685-2.627-2.685H25z" fill="url(#gioco-c-wr)" stroke="#323232" stroke-linecap="round" stroke-linejoin="round" stroke-width="1.6"></path>
		<g fill="#fff">
			<path d="M13.656 11.168v5.54c.48-1.867.299-4.088 1.554-5.54zM22.877 11.163c.055.896-.154 1.748-.269 2.616.48-1.866 1.823-2.616 1.823-2.616zM16.947 35.312c.875-1.143 3.603-10.333 3.233-13.244.7.39.658 10.057-3.233 13.244zM33.863 11.209c.005.598-.055 1.226-.187 2.02.48-1.867 1.295-2.04 1.295-2.04z"></path>
		</g>
	</svg>
	<svg class="text-gray-700/70 dark:text-gray-400/70 pointer-events-none"
		xmlns="http://www.w3.org/2000/svg" height="1.7" width="1.7" x="7.685898384862245" y="19.15" viewBox="0 0 50 50" hexboard="false">
		<defs>
			<linearGradient gradientTransform="translate(474.35 493.34)" gradientUnits="userSpaceOnUse" x1="-462.21" x2="-434.18" href="#gioco-a-wn" id="gioco-b-wn" y1="-469.84" y2="-469.84"></linearGradient>
			<linearGradient id="gioco-a-wn">
				<stop offset="0" stop-color="#fff"></stop>
				<stop offset="1" stop-color="#bba38a"></stop>
			</linearGradient>
			<linearGradient gradientTransform="translate(474.35 493.34)" gradientUnits="userSpaceOnUse" x1="-464.54" x2="-434.16" href="#gioco-a-wn" id="gioco-c-wn" y1="-452.1" y2="-452.1"></linearGradient>
		</defs>
		<path class="st28" d="m25.987 23.546-11.592 1.097-1.454-5.216 14.468-6.815 1.763-3.9 10.2 11.892-4.116 17.678H14.74c.245-11.292 9.64-8.1 11.247-14.736z" fill="url(#gioco-b-wn)" stroke="#323232" stroke-linejoin="round" stroke-width="1.6"></path>
		<path d="m29.173 8.72-.879 1.945.426-.943c2.692 3.722 5.608 7.279 8.45 10.888l-5.285 17.671h3.372l4.117-17.671z" opacity=".1"></path>
		<path d="M13.24 38.286c-1.437 0-2.627 1.216-2.627 2.685v.545l.013 2.684h28.748l.013-2.684v-.545c0-1.468-1.19-2.685-2.627-2.685H25z" fill="url(#gioco-c-wn)" stroke="#323232" stroke-linecap="round" stroke-linejoin="round" stroke-width="1.6"></path>
		<path d="M15.62 37.633c.159-4.472 2.145-6.971 8.667-9.837-.987 1.107-6.405 2.237-8.667 9.837zM14.418 21.67l-.523-1.803L28.03 13.21l1.217-2.764-.671 3.558-14.35 5.921z" fill="#fff"></path>
	</svg>
	<svg class="text-gray-700/70 dark:text-gray-400/70 pointer-events-none"
		xmlns="http://www.w3.org/2000/svg" height="1.7" width="1.7" x="9.417949192431124" y="20.15" viewBox="0 0 50 50" hexboard="false">
		<defs>
			<linearGradient gradientTransform="translate(545.92 492.79)" gradientUnits="userSpaceOnUse" x1="-540.02" x2="-501.82" href="#gioco-a-wq" id="gioco-b-wq" y1="-470.59" y2="-470.59"></linearGradient>
			<linearGradient id="gioco-a-wq">
				<stop offset="0" stop-color="#fff"></stop>
				<stop offset="1" stop-color="#bba38a"></stop>
			</linearGradient>
			<linearGradient gradientTransform="translate(545.92 492.79)" gradientUnits="userSpaceOnUse" x1="-536.12" x2="-505.75" href="#gioco-a-wq" id="gioco-c-wq" y1="-451.55" y2="-451.55"></linearGradient>
		</defs>
		<path d="M25 6.122c-2.635 0-4.771 2.098-4.771 4.685.002 1.855 1.118 3.534 2.846 4.283-.369 2.286-1.51 7.558-4.68 8.009-2.355.334-3.855-1.287-4.88-3.144a4.19 4.19 0 0 0 1.767-3.4c0-2.327-1.921-4.214-4.291-4.214S6.699 14.228 6.7 16.555c0 2.142 1.64 3.943 3.809 4.183l4.973 17.54h19.036l4.973-17.54c2.169-.24 3.807-2.041 3.809-4.183 0-2.327-1.922-4.214-4.292-4.214s-4.29 1.887-4.29 4.214a4.19 4.19 0 0 0 1.766 3.4c-1.025 1.857-2.525 3.478-4.88 3.144-3.17-.45-4.31-5.723-4.68-8.01 1.729-.748 2.845-2.427 2.847-4.282 0-2.587-2.136-4.685-4.77-4.685z" fill="url(#gioco-b-wq)" stroke="#323232" stroke-linejoin="round" stroke-width="1.6"></path>
		<path d="M39.002 12.342a4.348 4.348 0 0 0-1.567.296c4.741 1.678 3.877 6.805.591 7.316L30.414 38.28h4.2l4.87-17.541c2.17-.241 3.808-2.042 3.81-4.184 0-2.327-1.922-4.214-4.292-4.213z" opacity=".1"></path>
		<path d="M13.227 38.286c-1.437 0-2.627 1.216-2.627 2.685v.545l.013 2.684H39.36l.013-2.684v-.545c0-1.468-1.19-2.685-2.627-2.685h-11.76z" fill="url(#gioco-c-wq)" stroke="#323232" stroke-linecap="round" stroke-linejoin="round" stroke-width="1.6"></path>
		<g fill="#fff">
			<path d="M9.515 13.489c-.794 1.17-1.726 2.667-1.554 4.779 0 0-1.604-3.01 1.554-4.779zM23.659 7.23c-.853.874-2.37 2.934-2.133 5.374-.207-.084-1.73-3.893 2.133-5.374zM12.062 23.328l5.244 14.111-1.17.023z"></path>
		</g>
	</svg>
	<svg class="text-gray-700/70 dark:text-gray-400/70 pointer-events-none"
		xmlns="http://www.w3.org/2000/svg" height="1.7" width="1.7" x="11.15" y="21.15" viewBox="0 0 50 50" hexboard="false">
		<defs>
			<linearGradient gradientTransform="matrix(1.019 0 0 1.0751 -3392.3 527.45)" gradientUnits="userSpaceOnUse" x1="3341.2" x2="3366.2" href="#gioco-a-wb" id="gioco-b-wb" y1="-469.26" y2="-469.26"></linearGradient>
			<linearGradient id="gioco-a-wb">
				<stop offset="0" stop-color="#fff"></stop>
				<stop offset="1" stop-color="#bba38a"></stop>
			</linearGradient>
			<linearGradient gradientTransform="matrix(1.1509 0 0 1.1499 214.24 -138.92)" gradientUnits="userSpaceOnUse" x1="-177.63" x2="-151.24" href="#gioco-a-wb" id="gioco-c-wb" y1="156.68" y2="156.68"></linearGradient>
		</defs>
		<path d="M26.87 8.223c-5.797-2.298-6.952 2.527-4.668 5.86-9.898 10.6-11.253 16.425-6.195 24.204h17.99c6.084-6.912 2.558-14.515-4.823-22.3-2.883 4.119-3.274 7.35-3.946 11.131l-3.62-.071c-.66-6.006 7.622-15.14 5.261-18.823z" fill="url(#gioco-b-wb)" stroke="#323232" stroke-linejoin="round" stroke-width="1.6"></path>
		<path d="M24.933 7.654c-.625.02-.207.197-.771.567 0 .003.01.006.01.008 3.582-.311-2.369 11.772-3.394 18.894.536-3.014 1.325-5.68 3.082-8.725 2.003-4.351 4.237-8.681 3.008-10.169-.411-.38-1.144-.601-1.934-.575zm4.24 8.338c-.6.856-.517.67-.972 1.462 6.004 6.049 8.728 13.787 3.097 20.838h2.696c6.085-6.912 2.56-14.515-4.822-22.3z" opacity=".1"></path>
		<path d="M13.24 38.286c-1.437 0-2.627 1.216-2.627 2.685v.545l.013 2.684h28.749l.012-2.684v-.545c0-1.468-1.19-2.685-2.627-2.685H25z" fill="url(#gioco-c-wb)" stroke="#323232" stroke-linecap="round" stroke-linejoin="round" stroke-width="1.6"></path>
		<path d="M14.895 34.327c-.716-1.396-3.266-6.812 4.513-15.739-2.1 4.86-5.958 8.69-4.513 15.739z" fill="#fff"></path>
	</svg>
	<svg class="text-gray-700/70 dark:text-gray-400/70 pointer-events-none"
		xmlns="http://www.w3.org/2000/svg" height="1.7" width="1.7" x="12.882050807568877" y="20.15" viewBox="0 0 50 50" hexboard="false">
		<defs>
			<linearGradient gradientTransform="matrix(.26458 0 0 .25357 227.43 -666.55)" gradientUnits="userSpaceOnUse" x1="-825.75" x2="-704.44" href="#gioco-a-wk" id="gioco-b-wk" y1="2712.8" y2="2712.8"></linearGradient>
			<linearGradient id="gioco-a-wk">
				<stop offset="0" stop-color="#fff"></stop>
				<stop offset="1" stop-color="#bba38a"></stop>
			</linearGradient>
			<linearGradient gradientTransform="translate(225.05 -690.53)" gradientUnits="userSpaceOnUse" x1="-215.24" x2="-184.86" href="#gioco-a-wk" id="gioco-c-wk" y1="731.78" y2="731.78"></linearGradient>
		</defs>
		<path d="M25.006 3.868c-1.803.1-3.228 1.234-3.228 2.618 0 .565.244 1.644.693 2.097h-5.766v5.106h6.306l-2.61 2.833 2.673 2.167c-5.584.362-12.02 1.643-13.154 3.997-1.268 2.638 6.215 15.6 6.215 15.6h17.73s7.484-12.963 6.215-15.6c-1.133-2.357-7.594-3.64-13.179-3.999l2.71-2.165-2.61-2.833h6.306V8.583H27.54c.449-.453.693-1.531.693-2.097 0-1.384-1.425-2.518-3.228-2.618z" fill="url(#gioco-b-wk)" stroke="#323232" stroke-linejoin="round" stroke-width="1.6" style="paint-order: fill markers;"></path>
		<path d="m31.289 38.283 2.573-.005s7.482-12.428 6.214-15.065c-4.136-3.824-13.18-4.525-13.18-4.525 11.05 2.822 12.618 5.028 4.393 19.595z" opacity=".1"></path>
		<path d="M13.242 38.286c-1.437 0-2.627 1.216-2.627 2.685v.545l.013 2.684h28.749l.012-2.684v-.545c0-1.468-1.19-2.685-2.627-2.685h-11.76z" fill="url(#gioco-c-wk)" stroke="#323232" stroke-linecap="round" stroke-linejoin="round" stroke-width="1.6"></path>
		<g fill="#fff">
			<path d="M13.283 31.138s-3.074-6.555-2.666-8.092c.408-1.536 5.987-2.736 5.987-2.736-6.486 2.71-4.786 4.558-3.321 10.828zM17.521 12.884v-3.52l1.532-.011c-.891.007-1.532 2.147-1.532 3.531zM24.798 4.67s-2.614.92-1.53 3.522c-.178-.007-2.142-2.72 1.53-3.522z"></path>
		</g>
	</svg>
	<svg class="text-gray-700/70 dark:text-gray-400/70 pointer-events-none"
		xmlns="http://www.w3.org/2000/svg" height="1.7" width="1.7" x="14.614101615137756" y="19.15" viewBox="0 0 50 50" hexboard="false">
		<defs>
			<linearGradient gradientTransform="translate(474.35 493.34)" gradientUnits="userSpaceOnUse" x1="-462.21" x2="-434.18" href="#gioco-a-wn" id="gioco-b-wn" y1="-469.84" y2="-469.84"></linearGradient>
			<linearGradient id="gioco-a-wn">
				<stop offset="0" stop-color="#fff"></stop>
				<stop offset="1" stop-color="#bba38a"></stop>
			</linearGradient>
			<linearGradient gradientTransform="translate(474.35 493.34)" gradientUnits="userSpaceOnUse" x1="-464.54" x2="-434.16" href="#gioco-a-wn" id="gioco-c-wn" y1="-452.1" y2="-452.1"></linearGradient>
		</defs>
		<path class="st28" d="m25.987 23.546-11.592 1.097-1.454-5.216 14.468-6.815 1.763-3.9 10.2 11.892-4.116 17.678H14.74c.245-11.292 9.64-8.1 11.247-14.736z" fill="url(#gioco-b-wn)" stroke="#323232" stroke-linejoin="round" stroke-width="1.6"></path>
		<path d="m29.173 8.72-.879 1.945.426-.943c2.692 3.722 5.608 7.279 8.45 10.888l-5.285 17.671h3.372l4.117-17.671z" opacity=".1"></path>
		<path d="M13.24 38.286c-1.437 0-2.627 1.216-2.627 2.685v.545l.013 2.684h28.748l.013-2.684v-.545c0-1.468-1.19-2.685-2.627-2.685H25z" fill="url(#gioco-c-wn)" stroke="#323232" stroke-linecap="round" stroke-linejoin="round" stroke-width="1.6"></path>
		<path d="M15.62 37.633c.159-4.472 2.145-6.971 8.667-9.837-.987 1.107-6.405 2.237-8.667 9.837zM14.418 21.67l-.523-1.803L28.03 13.21l1.217-2.764-.671 3.558-14.35 5.921z" fill="#fff"></path>
	</svg>
	<svg class="text-gray-700/70 dark:text-gray-400/70 pointer-events-none"
		xmlns="http://www.w3.org/2000/svg" height="1.7" width="1.7" x="16.34615242270663" y="18.15" viewBox="0 0 50 50" hexboard="false">
		<defs>
			<linearGradient gradientTransform="translate(582.87 492.95)" gradientUnits="userSpaceOnUse" x1="-570.82" x2="-544.4" href="#gioco-a-wr" id="gioco-b-wr" y1="-468.61" y2="-468.61"></linearGradient>
			<linearGradient id="gioco-a-wr">
				<stop offset="0" stop-color="#fff"></stop>
				<stop offset="1" stop-color="#bba38a"></stop>
			</linearGradient>
			<linearGradient gradientTransform="translate(582.87 492.95)" gradientUnits="userSpaceOnUse" x1="-573.06" x2="-542.69" href="#gioco-a-wr" id="gioco-c-wr" y1="-451.71" y2="-451.71"></linearGradient>
		</defs>
		<path d="M12.855 10.383v7.663c0 3.268 6.53 3.774 6.53 3.774-.352 9.864-5.036 16.486-5.036 16.486l21.428-.039s-4.651-6.62-5-16.446c0 0 6.896-.507 6.896-3.774v-7.663h-4.72s.459 2.25-.47 3.26c-1.035 1.126-2.418 1.126-3.454 0-.928-1.01-.47-3.26-.47-3.26h-6.59s.459 2.25-.47 3.26c-1.122 1.22-2.699 1.22-3.82 0-.929-1.01-.47-3.26-.47-3.26z" fill="url(#gioco-b-wr)" stroke="#323232" stroke-linejoin="round" stroke-width="1.6"></path>
		<path d="m37.543 10.462.014 7.585c.263 3.48-24.58 2.135-24.523 1.03 2.098 2.532 4.445 2.613 6.352 2.744 7.292.498 9.8 8.89 13.306 16.446h2.97s-4.65-6.62-5-16.446c2.547-.395 2.954-.812 4.037-1.058h.018l-.002-.004c1.023-.236 2.81-1.376 2.842-2.713v-7.663z" opacity=".1"></path>
		<path d="M13.239 38.286c-1.437 0-2.627 1.216-2.627 2.685v.544l.013 2.685h28.75l.012-2.685v-.544c0-1.469-1.19-2.685-2.627-2.685H25z" fill="url(#gioco-c-wr)" stroke="#323232" stroke-linecap="round" stroke-linejoin="round" stroke-width="1.6"></path>
		<g fill="#fff">
			<path d="M13.656 11.168v5.54c.48-1.867.299-4.088 1.554-5.54zM22.877 11.163c.055.896-.154 1.748-.269 2.616.48-1.866 1.823-2.616 1.823-2.616zM16.947 35.312c.875-1.143 3.603-10.333 3.233-13.244.7.39.658 10.057-3.233 13.244zM33.863 11.209c.005.598-.055 1.226-.187 2.02.48-1.867 1.295-2.04 1.295-2.04z"></path>
		</g>
	</svg>
	<svg class="text-gray-700/70 dark:text-gray-400/70 pointer-events-none"
		xmlns="http://www.w3.org/2000/svg" height="1.7" width="1.7" x="18.07820323027551" y="17.15" viewBox="0 0 50 50" hexboard="false">
		<defs>
			<linearGradient id="gioco-a-wp" gradientTransform="matrix(.94331 0 0 1 615.66 493.37)" gradientUnits="userSpaceOnUse" x1="-639.4" x2="-612.91" y1="-465.15" y2="-465.15">
				<stop offset="0" stop-color="#fff"></stop>
				<stop offset="1" stop-color="#bba38a"></stop>
			</linearGradient>
		</defs>
		<path d="M25 12.264c-3.56 0-6.447 2.655-6.447 5.93 0 1.705.799 3.326 2.19 4.45h-1.666c-1.312 0-2.4.978-2.4 2.158v.438c0 1.18 1.088 2.157 2.4 2.157h2.376c0 7.293-9.342 6.457-8.689 16.78L25 44.167l12.236.008c.653-10.323-8.689-9.486-8.689-16.779h2.376c1.312 0 2.4-.978 2.4-2.157v-.438c0-1.18-1.087-2.157-2.4-2.157h-1.666c1.391-1.125 2.19-2.747 2.19-4.45 0-3.276-2.886-5.93-6.446-5.931z" fill="url(#gioco-a-wp)" stroke="#323232" stroke-linejoin="round" stroke-width="1.6"></path>
		<path d="M24.999 12.264c-.521 0-1.028.058-1.513.166 6.257.692 7.675 6.466 4.917 9.222-2.016 1.69-7.662.993-7.662.993 2.56.443 4.97 1.954 7.252 2.488-6.033 11.435 9.7 9.026 9.242 19.043.995-10.592-7.673-8.148-8.689-16.78h2.377c1.312 0 2.398-.977 2.398-2.156v-.438c0-1.18-1.086-2.158-2.398-2.158h-1.667c1.391-1.125 2.191-2.746 2.19-4.449 0-3.276-2.886-5.932-6.447-5.932z" opacity=".15"></path>
		<path d="M22.959 13.401c-1.77 1.602-2.968 3.612-3.476 6.19 0 0-1.16-4.235 3.476-6.19zM13.342 43.419c.273-5.321 2.572-6.184 7.538-11.434-1.03 3.566-7.387 5.868-7.538 11.434z" fill="#fff"></path>
	</svg>
	<circle class="pointer-events-none" cx="13.732050807568877" cy="13" fill="#ef4444" r="0.3"></circle>
	<circle class="pointer-events-none" cx="13.732050807568877" cy="11" fill="#ef4444" r="0.3"></circle>
</svg>
