<svg xmlns="http://www.w3.org/2000/svg" viewBox="0 0 24 24">
  <path d="M 12.57735026919 11 L 13.154700538379 12 12.57735026919 13 11.42264973081 13 10.845299461621 12 11.42264973081 11 Z" fill="#fdba74"/>
  <path d="M 3.9170962313453 6 L 4.4944465005349 7 3.9170962313453 8 2.762395692966 8 2.1850454237763 7 2.762395692966 6 Z" fill="#fed7aa"/>
  <path d="M 5.6491470389141 7 L 6.2264973081038 8 5.6491470389141 9 4.4944465005348 9 3.9170962313452 8 4.4944465005348 7 Z" fill="#ca8a04"/>
  <path d="M 7.381197846483 8 L 7.9585481156727 9 7.381197846483 10 6.2264973081037 10 5.6491470389141 9 6.2264973081037 8 Z" fill="#fdba74"/>
  <path d="M 9.1132486540519 9 L 9.6905989232415 10 9.1132486540519 11 7.9585481156726 11 7.3811978464829 10 7.9585481156726 9 Z" fill="#fed7aa"/>
  <path d="M 10.845299461621 10 L 11.42264973081 11 10.845299461621 12 9.6905989232415 12 9.1132486540518 11 9.6905989232415 10 Z" fill="#ca8a04"/>
  <path d="M 14.309401076759 10 L 14.886751345948 11 14.309401076759 12 13.154700538379 12 12.57735026919 11 13.154700538379 10 Z" fill="#ca8a04"/>
  <path d="M 16.041451884327 9 L 16.618802153517 10 16.041451884327 11 14.886751345948 11 14.309401076758 10 14.886751345948 9 Z" fill="#fed7aa"/>
  <path d="M 17.773502691896 8 L 18.350852961086 9 17.773502691896 10 16.618802153517 10 16.041451884327 9 16.618802153517 8 Z" fill="#fdba74"/>
  <path d="M 19.505553499465 7 L 20.082903768655 8 19.505553499465 9 18.350852961086 9 17.773502691896 8 18.350852961086 7 Z" fill="#ca8a04"/>
  <path d="M 21.237604307034 6 L 21.814954576224 7 21.237604307034 8 20.082903768655 8 19.505553499465 7 20.082903768655 6 Z" fill="#fed7aa"/>
  <path d="M 3.9170962313453 16 L 4.4944465005349 17 3.9170962313453 18 2.762395692966 18 2.1850454237763 17 2.762395692966 16 Z" fill="#ca8a04"/>
  <path d="M 3.9170962313453 14 L 4.4944465005349 15 3.9170962313453 16 2.762395692966 16 2.1850454237763 15 2.762395692966 14 Z" fill="#fdba74"/>
  <path d="M 3.9170962313453 12 L 4.4944465005349 13 3.9170962313453 14 2.762395692966 14 2.1850454237763 13 2.762395692966 12 Z" fill="#fed7aa"/>
  <path d="M 3.9170962313453 10 L 4.4944465005349 11 3.9170962313453 12 2.762395692966 12 2.1850454237763 11 2.762395692966 10 Z" fill="#ca8a04"/>
  <path d="M 3.9170962313453 8 L 4.4944465005349 9 3.9170962313453 10 2.762395692966 10 2.1850454237763 9 2.762395692966 8 Z" fill="#fdba74"/>
  <path d="M 5.6491470389141 17 L 6.2264973081038 18 5.6491470389141 19 4.4944465005348 19 3.9170962313452 18 4.4944465005348 17 Z" fill="#fdba74" />
  <path d="M 5.6491470389141 15 L 6.2264973081038 16 5.6491470389141 17 4.4944465005348 17 3.9170962313452 16 4.4944465005348 15 Z" fill="#fed7aa"/>
  <path d="M 5.6491470389141 13 L 6.2264973081038 14 5.6491470389141 15 4.4944465005348 15 3.9170962313452 14 4.4944465005348 13 Z" fill="#ca8a04"/>
  <path d="M 5.6491470389141 11 L 6.2264973081038 12 5.6491470389141 13 4.4944465005348 13 3.9170962313452 12 4.4944465005348 11 Z" fill="#fdba74"/>
  <path d="M 5.6491470389141 9 L 6.2264973081038 10 5.6491470389141 11 4.4944465005348 11 3.9170962313452 10 4.4944465005348 9 Z" fill="#fed7aa"/>
  <path d="M 5.6491470389141 5 L 6.2264973081038 6 5.6491470389141 7 4.4944465005348 7 3.9170962313452 6 4.4944465005348 5 Z" fill="#fdba74" />
  <path d="M 7.381197846483 18 L 7.9585481156727 19 7.381197846483 20 6.2264973081037 20 5.6491470389141 19 6.2264973081037 18 Z" fill="#fed7aa" />
  <path d="M 7.381197846483 16 L 7.9585481156727 17 7.381197846483 18 6.2264973081037 18 5.6491470389141 17 6.2264973081037 16 Z" fill="#ca8a04" />
  <path d="M 7.381197846483 14 L 7.9585481156727 15 7.381197846483 16 6.2264973081037 16 5.6491470389141 15 6.2264973081037 14 Z" fill="#fdba74"/>
  <path d="M 7.381197846483 12 L 7.9585481156727 13 7.381197846483 14 6.2264973081037 14 5.6491470389141 13 6.2264973081037 12 Z" fill="#fed7aa"/>
  <path d="M 7.381197846483 10 L 7.9585481156727 11 7.381197846483 12 6.2264973081037 12 5.6491470389141 11 6.2264973081037 10 Z" fill="#ca8a04"/>
  <path d="M 7.381197846483 6 L 7.9585481156727 7 7.381197846483 8 6.2264973081037 8 5.6491470389141 7 6.2264973081037 6 Z" fill="#fed7aa" />
  <path d="M 7.381197846483 4 L 7.9585481156727 5 7.381197846483 6 6.2264973081037 6 5.6491470389141 5 6.2264973081037 4 Z" fill="#ca8a04" />
  <path d="M 9.1132486540519 19 L 9.6905989232415 20 9.1132486540519 21 7.9585481156726 21 7.3811978464829 20 7.9585481156726 19 Z" fill="#ca8a04" />
  <path d="M 9.1132486540519 17 L 9.6905989232415 18 9.1132486540519 19 7.9585481156726 19 7.3811978464829 18 7.9585481156726 17 Z" fill="#fdba74"/>
  <path d="M 9.1132486540519 15 L 9.6905989232415 16 9.1132486540519 17 7.9585481156726 17 7.3811978464829 16 7.9585481156726 15 Z" fill="#fed7aa" />
  <path d="M 9.1132486540519 13 L 9.6905989232415 14 9.1132486540519 15 7.9585481156726 15 7.3811978464829 14 7.9585481156726 13 Z" fill="#ca8a04"/>
  <path d="M 9.1132486540519 11 L 9.6905989232415 12 9.1132486540519 13 7.9585481156726 13 7.3811978464829 12 7.9585481156726 11 Z" fill="#fdba74"/>
  <path d="M 9.1132486540519 7 L 9.6905989232415 8 9.1132486540519 9 7.9585481156726 9 7.3811978464829 8 7.9585481156726 7 Z" fill="#ca8a04" />
  <path d="M 9.1132486540519 5 L 9.6905989232415 6 9.1132486540519 7 7.9585481156726 7 7.3811978464829 6 7.9585481156726 5 Z" fill="#fdba74"/>
  <path d="M 9.1132486540519 3 L 9.6905989232415 4 9.1132486540519 5 7.9585481156726 5 7.3811978464829 4 7.9585481156726 3 Z" fill="#fed7aa" />
  <path d="M 10.845299461621 20 L 11.42264973081 21 10.845299461621 22 9.6905989232415 22 9.1132486540518 21 9.6905989232415 20 Z" fill="#fdba74" />
  <path d="M 10.845299461621 18 L 11.42264973081 19 10.845299461621 20 9.6905989232415 20 9.1132486540518 19 9.6905989232415 18 Z" fill="#fed7aa"/>
  <path d="M 10.845299461621 16 L 11.42264973081 17 10.845299461621 18 9.6905989232415 18 9.1132486540518 17 9.6905989232415 16 Z" fill="#ca8a04"/>
  <path d="M 10.845299461621 14 L 11.42264973081 15 10.845299461621 16 9.6905989232415 16 9.1132486540518 15 9.6905989232415 14 Z" fill="#fdba74" />
  <path d="M 10.845299461621 12 L 11.42264973081 13 10.845299461621 14 9.6905989232415 14 9.1132486540518 13 9.6905989232415 12 Z" fill="#fed7aa"/>
  <path d="M 10.845299461621 8 L 11.42264973081 9 10.845299461621 10 9.6905989232415 10 9.1132486540518 9 9.6905989232415 8 Z" fill="#fdba74" />
  <path d="M 10.845299461621 6 L 11.42264973081 7 10.845299461621 8 9.6905989232415 8 9.1132486540518 7 9.6905989232415 6 Z" fill="#fed7aa"/>
  <path d="M 10.845299461621 4 L 11.42264973081 5 10.845299461621 6 9.6905989232415 6 9.1132486540518 5 9.6905989232415 4 Z" fill="#ca8a04"/>
  <path d="M 10.845299461621 2 L 11.42264973081 3 10.845299461621 4 9.6905989232415 4 9.1132486540518 3 9.6905989232415 2 Z" fill="#fdba74" />
  <path d="M 12.57735026919 21 L 13.154700538379 22 12.57735026919 23 11.42264973081 23 10.845299461621 22 11.42264973081 21 Z" fill="#fed7aa" />
  <path d="M 12.57735026919 19 L 13.154700538379 20 12.57735026919 21 11.42264973081 21 10.845299461621 20 11.42264973081 19 Z" fill="#ca8a04" />
  <path d="M 12.57735026919 17 L 13.154700538379 18 12.57735026919 19 11.42264973081 19 10.845299461621 18 11.42264973081 17 Z" fill="#fdba74" />
  <path d="M 12.57735026919 15 L 13.154700538379 16 12.57735026919 17 11.42264973081 17 10.845299461621 16 11.42264973081 15 Z" fill="#fed7aa"/>
  <path d="M 12.57735026919 13 L 13.154700538379 14 12.57735026919 15 11.42264973081 15 10.845299461621 14 11.42264973081 13 Z" fill="#ca8a04" />
  <path d="M 12.57735026919 9 L 13.154700538379 10 12.57735026919 11 11.42264973081 11 10.845299461621 10 11.42264973081 9 Z" fill="#fed7aa" />
  <path d="M 12.57735026919 7 L 13.154700538379 8 12.57735026919 9 11.42264973081 9 10.845299461621 8 11.42264973081 7 Z" fill="#ca8a04"/>
  <path d="M 12.57735026919 5 L 13.154700538379 6 12.57735026919 7 11.42264973081 7 10.845299461621 6 11.42264973081 5 Z" fill="#fdba74" />
  <path d="M 12.57735026919 3 L 13.154700538379 4 12.57735026919 5 11.42264973081 5 10.845299461621 4 11.42264973081 3 Z" fill="#fed7aa" />
  <path d="M 12.57735026919 1 L 13.154700538379 2 12.57735026919 3 11.42264973081 3 10.845299461621 2 11.42264973081 1 Z" fill="#ca8a04" />
  <path d="M 14.309401076759 20 L 14.886751345948 21 14.309401076759 22 13.154700538379 22 12.57735026919 21 13.154700538379 20 Z" fill="#fdba74" />
  <path d="M 14.309401076759 18 L 14.886751345948 19 14.309401076759 20 13.154700538379 20 12.57735026919 19 13.154700538379 18 Z" fill="#fed7aa"/>
  <path d="M 14.309401076759 16 L 14.886751345948 17 14.309401076759 18 13.154700538379 18 12.57735026919 17 13.154700538379 16 Z" fill="#ca8a04"/>
  <path d="M 14.309401076759 14 L 14.886751345948 15 14.309401076759 16 13.154700538379 16 12.57735026919 15 13.154700538379 14 Z" fill="#fdba74" />
  <path d="M 14.309401076759 12 L 14.886751345948 13 14.309401076759 14 13.154700538379 14 12.57735026919 13 13.154700538379 12 Z" fill="#fed7aa"/>
  <path d="M 14.309401076759 8 L 14.886751345948 9 14.309401076759 10 13.154700538379 10 12.57735026919 9 13.154700538379 8 Z" fill="#fdba74" />
  <path d="M 14.309401076759 6 L 14.886751345948 7 14.309401076759 8 13.154700538379 8 12.57735026919 7 13.154700538379 6 Z" fill="#fed7aa"/>
  <path d="M 14.309401076759 4 L 14.886751345948 5 14.309401076759 6 13.154700538379 6 12.57735026919 5 13.154700538379 4 Z" fill="#ca8a04"/>
  <path d="M 14.309401076759 2 L 14.886751345948 3 14.309401076759 4 13.154700538379 4 12.57735026919 3 13.154700538379 2 Z" fill="#fdba74" />
  <path d="M 16.041451884327 19 L 16.618802153517 20 16.041451884327 21 14.886751345948 21 14.309401076758 20 14.886751345948 19 Z" fill="#ca8a04" />
  <path d="M 16.041451884327 17 L 16.618802153517 18 16.041451884327 19 14.886751345948 19 14.309401076758 18 14.886751345948 17 Z" fill="#fdba74"/>
  <path d="M 16.041451884327 15 L 16.618802153517 16 16.041451884327 17 14.886751345948 17 14.309401076758 16 14.886751345948 15 Z" fill="#fed7aa" />
  <path d="M 16.041451884327 13 L 16.618802153517 14 16.041451884327 15 14.886751345948 15 14.309401076758 14 14.886751345948 13 Z" fill="#ca8a04"/>
  <path d="M 16.041451884327 11 L 16.618802153517 12 16.041451884327 13 14.886751345948 13 14.309401076758 12 14.886751345948 11 Z" fill="#fdba74"/>
  <path d="M 16.041451884327 7 L 16.618802153517 8 16.041451884327 9 14.886751345948 9 14.309401076758 8 14.886751345948 7 Z" fill="#ca8a04" />
  <path d="M 16.041451884327 5 L 16.618802153517 6 16.041451884327 7 14.886751345948 7 14.309401076758 6 14.886751345948 5 Z" fill="#fdba74"/>
  <path d="M 16.041451884327 3 L 16.618802153517 4 16.041451884327 5 14.886751345948 5 14.309401076758 4 14.886751345948 3 Z" fill="#fed7aa" />
  <path d="M 17.773502691896 18 L 18.350852961086 19 17.773502691896 20 16.618802153517 20 16.041451884327 19 16.618802153517 18 Z" fill="#fed7aa" />
  <path d="M 17.773502691896 16 L 18.350852961086 17 17.773502691896 18 16.618802153517 18 16.041451884327 17 16.618802153517 16 Z" fill="#ca8a04" />
  <path d="M 17.773502691896 14 L 18.350852961086 15 17.773502691896 16 16.618802153517 16 16.041451884327 15 16.618802153517 14 Z" fill="#fdba74"/>
  <path d="M 17.773502691896 12 L 18.350852961086 13 17.773502691896 14 16.618802153517 14 16.041451884327 13 16.618802153517 12 Z" fill="#fed7aa"/>
  <path d="M 17.773502691896 10 L 18.350852961086 11 17.773502691896 12 16.618802153517 12 16.041451884327 11 16.618802153517 10 Z" fill="#ca8a04"/>
  <path d="M 17.773502691896 6 L 18.350852961086 7 17.773502691896 8 16.618802153517 8 16.041451884327 7 16.618802153517 6 Z" fill="#fed7aa" />
  <path d="M 17.773502691896 4 L 18.350852961086 5 17.773502691896 6 16.618802153517 6 16.041451884327 5 16.618802153517 4 Z" fill="#ca8a04" />
  <path d="M 19.505553499465 17 L 20.082903768655 18 19.505553499465 19 18.350852961086 19 17.773502691896 18 18.350852961086 17 Z" fill="#fdba74" />
  <path d="M 19.505553499465 15 L 20.082903768655 16 19.505553499465 17 18.350852961086 17 17.773502691896 16 18.350852961086 15 Z" fill="#fed7aa"/>
  <path d="M 19.505553499465 13 L 20.082903768655 14 19.505553499465 15 18.350852961086 15 17.773502691896 14 18.350852961086 13 Z" fill="#ca8a04"/>
  <path d="M 19.505553499465 11 L 20.082903768655 12 19.505553499465 13 18.350852961086 13 17.773502691896 12 18.350852961086 11 Z" fill="#fdba74"/>
  <path d="M 19.505553499465 9 L 20.082903768655 10 19.505553499465 11 18.350852961086 11 17.773502691896 10 18.350852961086 9 Z" fill="#fed7aa"/>
  <path d="M 19.505553499465 5 L 20.082903768655 6 19.505553499465 7 18.350852961086 7 17.773502691896 6 18.350852961086 5 Z" fill="#fdba74" />
  <path d="M 21.237604307034 16 L 21.814954576224 17 21.237604307034 18 20.082903768655 18 19.505553499465 17 20.082903768655 16 Z" fill="#ca8a04"/>
  <path d="M 21.237604307034 14 L 21.814954576224 15 21.237604307034 16 20.082903768655 16 19.505553499465 15 20.082903768655 14 Z" fill="#fdba74"/>
  <path d="M 21.237604307034 12 L 21.814954576224 13 21.237604307034 14 20.082903768655 14 19.505553499465 13 20.082903768655 12 Z" fill="#fed7aa"/>
  <path d="M 21.237604307034 10 L 21.814954576224 11 21.237604307034 12 20.082903768655 12 19.505553499465 11 20.082903768655 10 Z" fill="#ca8a04"/>
  <path d="M 21.237604307034 8 L 21.814954576224 9 21.237604307034 10 20.082903768655 10 19.505553499465 9 20.082903768655 8 Z" fill="#fdba74"/>
</svg>